<?xml version="1.0" encoding="utf-8"?>
<!-- Generator: Adobe Illustrator 16.0.0, SVG Export Plug-In . SVG Version: 6.00 Build 0)  -->
<!DOCTYPE svg PUBLIC "-//W3C//DTD SVG 1.1//EN" "http://www.w3.org/Graphics/SVG/1.1/DTD/svg11.dtd">
<svg version="1.1" id="Layer_1" xmlns="http://www.w3.org/2000/svg" xmlns:xlink="http://www.w3.org/1999/xlink" x="0px" y="0px"
	 width="1024px" height="1024px" viewBox="0 0 1024 1024" enable-background="new 0 0 1024 1024" xml:space="preserve">
<title>gtanate</title>
<g>
	<path d="M222.626,552.363c-7.67-3.693-14.575-8.799-20.355-15.049c-10.172-8.795-16.267-21.396-16.844-34.832
		c-0.165-7.369-0.949-14.711-2.345-21.949c-2.584-6.593,0.666-14.033,7.26-16.617c1.167-0.457,2.395-0.741,3.645-0.842
		c8.081-3.104,16.974-3.383,25.233-0.79c4.414,1.431,8.378,3.986,11.504,7.416c8.002,9.424,17.076,18.052,19.849,30.813
		c0.155,2.06,1.909,3.629,3.973,3.555c3.213-0.258,3.014-2.819,2.91-5.245c-0.274-12.886,1.203-25.75,4.391-38.238
		c1.513-3.568,0.781-7.693-1.867-10.523c-3.959-4.849-6.58-10.649-7.602-16.825c-2.127-9.095-4.625-18.104-6.701-27.209
		c-0.131-2.85-2.546-5.054-5.396-4.924c-0.394,0.019-0.785,0.082-1.164,0.188c-6.246,0.252-12.372,1.798-17.989,4.54
		c-2.292,1.493-4.808,2.611-7.452,3.313c-3.217,0.977-6.617-0.84-7.593-4.057c-0.326-1.076-0.349-2.221-0.064-3.309
		c0.204-1.519,1.129-2.931,1.424-4.449c1.363-7.026,0.164-8.459-6.827-8.274c-1.167,0.111-2.328,0.283-3.478,0.515
		c-2.635,0.998-5.613,0.228-7.434-1.922c-1.41-2.877-0.788-6.337,1.536-8.542c3.755-6.453,9.271-11.518,13.528-17.547
		c4.896-6.933,4.658-7.857-1.129-13.841c-4.87-5.095-10.637-9.25-17.011-12.258c-5.257-1.133-8.65-6.252-7.646-11.535
		c1.834-5.37,7.214-8.689,12.836-7.92c5.849-0.211,11.721,0.076,17.558-0.267c4.437-0.261,7.351-1.522,4.965-7.355
		c-2.484-6.075-3.84-12.535-6.71-18.605c-2.612-3.604-1.807-8.643,1.797-11.255c1.731-1.254,3.889-1.77,6-1.433
		c2.719,0.08,5.173,1.651,6.383,4.087c7.804,8.237,16.464,15.62,25.833,22.021c2.714-4.199,4.504-8.928,5.25-13.873
		c7.679-18.407,17.75-35.722,29.952-51.499c10.512-13.057,23.458-23.947,38.123-32.067c12.883-7.232,26.582-12.899,40.809-16.882
		c12.974-4.385,26.726-5.986,40.359-4.696c12.875,0.287,25.711,1.529,38.402,3.717c10.331,1.874,20.206,5.714,29.089,11.312
		c1.925,2.602,5.331,3.629,8.374,2.527c9.361-5.67,14.801,0.875,19.709,6.786c6.146,7.4,11.357,15.577,17.191,23.724
		c8.332-6.211,16.083-12.033,23.886-17.786c2.545-2.997,6.198-4.831,10.122-5.082c2.982,0.284,3.302-2.241,4.301-4.453
		c7.302-17.341,19.249-32.329,34.525-43.313c10.557-7.347,15.717-6.096,20.525,5.621c7.182,14.94,8.529,32.023,3.777,47.905
		c-1.457,4.343-2.083,8.964-3.43,14.969c4.876-1.472,8.066-6.144,7.662-11.222c-0.913-12.83,4.681-24.372,7.211-36.477
		c2.077-11.387,9.895-20.89,20.668-25.124c9.664-4.155,19.589-7.677,29.711-10.543c3.723-1.958,8.328-0.527,10.285,3.196
		c0.858,1.631,1.096,3.518,0.668,5.31c-0.107,0.373-0.162,0.758-0.164,1.146c5.502,13.574-2.553,23.749-8.539,34.481
		c-1.877,3.364-3.377,6.938-5.81,11.997c4.346-1.458,8.375-3.729,11.874-6.69c25.813-19.368,52.106-12.19,70.385,11.703
		c3.759,6.67,2.45,15.047-3.163,20.253c-3.633,4.11-8.025,7.479-12.938,9.921c-3.87,1.859-7.578,4.037-11.087,6.511
		c-1.118,1.047-2.109,2.222-2.952,3.5c16.499,3.954,27.92,16.062,42.721,22.025c2.167,0.9,4.135,2.219,5.792,3.881
		c20.515,18.655,37.217,41.11,49.184,66.123c5.211,10.468,9.122,21.534,11.646,32.951c3.696,15.551,5.353,31.518,4.925,47.497
		c-0.447,4.245-2.216,10.122,6.106,9.088c2.037,0.126,3.681,1.712,3.88,3.742c0.618,7.229-1.784,14.394-6.637,19.789
		c-6.832,4.093-9.053,12.95-4.959,19.782c1.057,1.764,2.479,3.281,4.169,4.45c4.956,4.921,10.328,9.403,16.056,13.398
		c2.938,2.085,4.773,5.388,4.993,8.983c1.385,6.494-1.464,9.27-8.311,8.298c-6.565-0.931-13.126-1.919-19.66-3.052
		c-4.704-0.816-6.619,1.061-6.085,5.678c0.852,7.372,1.815,14.732,2.572,22.114c0.827,8.072-3.676,11.653-11.134,8.469
		c-4.629-2.081-9.044-4.61-13.181-7.551c-2.158-2.1-5.609-2.053-7.709,0.104c-0.438,0.45-0.795,0.972-1.055,1.542
		c-12.961,17.515-31.036,29.129-48.169,41.914c-14.907,9.919-30.968,17.982-47.827,24.014c-9.581,2.662-19.472,4.045-29.415,4.114
		c-4.669,0.353-9.354,0.417-14.03,0.192c-2.585,0.057-5.477,1.615-6.907-2.195c-0.903-1.824-3.114-2.571-4.939-1.669
		c-0.03,0.016-0.062,0.031-0.092,0.048c-10.889,5.215-20.354-1.738-30.315-3.475c-8.945-1.561-9.232-2.357-13.873,5.32
		c-5.134,7.772-10.774,15.199-16.885,22.23c-9.913,11.548-22.41,20.597-36.476,26.412c-13.721,7.383-28.245,13.16-43.287,17.22
		c-20.897,4.191-42.365,4.702-63.438,1.508c-27.79-3.998-55.341-9.505-82.532-16.497c-3.783-0.946-7.429-2.377-10.847-4.255
		c-3.937-2.448-8.307-4.12-12.872-4.927c-7.098-1.11-13.271-5.471-16.69-11.789c-5.17-8.192-11.606-15.513-19.068-21.689
		c-2.39-1.949-4.301-4.42-5.585-7.223c-1.612-4.571-5.048-8.27-9.489-10.214c-4.859,4.898-9.042,10.424-12.437,16.431
		c-11.993,14.493-28.684,20.807-45.101,28.056c-9.194,3.189-18.737,5.269-28.425,6.193c-2.314,0.349-4.679-0.1-6.704-1.272
		c-11.74-6.492-20.897-16.816-25.942-29.247c-2.143-4.471-0.614-9.837,3.563-12.506c8.066-7.353,15.28-15.588,21.508-24.551
		c5.197-6.329,11.395-11.766,18.346-16.095C212.301,558.539,216.926,555.841,222.626,552.363z M752.643,476.6
		c3.464-0.84,5.939,3.933,10.879,1.244c-3.689-5.204-8.543-9.474-14.175-12.47c-4.612-2.296-3.427,1.982-3.267,4.463
		c-2.218,0.493-3.078-3.626-5.792-1.793c9.671,15.089,9.671,15.089,16.396,13.976C755.916,479.846,754.507,477.956,752.643,476.6
		L752.643,476.6z M213.35,615.219c-1.597-3.8-2.171-3.79-6.728,0.157c2.507,1.767,4.639-2.075,7.083-0.445
		c-0.92,1.201-1.914,2.343-2.977,3.42c-4.091,2.185-8.067,4.578-11.912,7.171c-1.374,0.81-2.11,2.379-1.854,3.953
		c0.956,2.548,3.186,1.667,4.926,1.292c6.71-2.281,12.116-7.337,14.841-13.879C217.647,615.404,214.632,615.662,213.35,615.219z
		 M243.24,601.781c0.324,2.475-3.388,4.454-0.967,7.17c2.739-0.002,3.103-4.391,6.36-3.273c-0.156,4.045-3.159,7.411-7.159,8.026
		c-8.522-1.537-9.406,5.466-14.337,9.745c13.066-3.547,25.019-10.351,34.741-19.772c2.792-3.123,2.524-7.917-0.599-10.709
		c-0.123-0.11-0.249-0.216-0.378-0.317c-2.687,1.689-5.038,3.862-6.932,6.408c-1.146,2.865-3.147,5.307-5.732,6.991
		c-1.827-4.178,3.769-7.262,1.869-11.568c-5.418-0.017-3.65,6.336-7.239,7.752c-0.959-3.515-3.236-4.532-5.854-2.069
		c-8.563,7.979-15.845,17.229-21.59,27.427c6.742-2.842,12.263-7.973,15.59-14.488C233.761,608.109,238.05,604.139,243.24,601.781
		L243.24,601.781z M204.766,590.524c2.776-1.485,6.179-1.121,8.578,0.918c4.651,3.613,11.143,3.675,15.862,0.151
		c6.265-2.842,2.72-5.24-0.684-7.441c2.724,0.775,5.637,0.536,8.198-0.674c0.961,3.545,3.125,3.97,6.024,2.258
		c2.402-1.354,3.582-4.163,2.864-6.826c-0.445-2.936-4.506-2.998-4.535-6.115c1.142-0.18,2.311-0.063,3.394,0.341
		c3.697,4.077,9.669,5.167,14.568,2.659c3.205-1.396,6.91-0.986,9.732,1.078c-1.964,4.946-8.577,2.026-9.752,7.305
		c1.174-0.025,2.344,0.138,3.465,0.484c5.482,2.89,7.894-0.664,9.4-4.805c0.112-5.431-2.474-10.564-6.905-13.707
		c-0.746-0.212-1.545-0.11-2.215,0.279c-3.948,6.038-8.509,1.435-11.893-0.022c-6.211-4.358-14.351-4.839-21.032-1.243
		c2.606,4.375,6.803,1.788,10.48,2.169c6.234,0.646,2.379,3.601,1.207,5.895c-7.675-3.209-16.182-3.855-24.254-1.843
		c3.78,1.295,7.214,3.435,10.043,6.255c-3.066-0.682-6.271-0.33-9.116,1.002l5.433,3.908c-6.615,0.758-12.335,4.886-19.103,5.07
		c0.129,1.047,0.257,2.095,0.318,3.056c-8.661-2.169-8.661-2.169-11.489,3.588C197.513,594.659,201.648,593.304,204.766,590.524
		L204.766,590.524z M354.277,487.917c1.712-3.829,3.258-7.745,5.215-11.445c0.981-1.21,0.963-2.948-0.046-4.137
		c-3.616-4.014-5.948-9.018-6.695-14.368c-0.239-1.181-1.382-1.95-2.566-1.729c-2.092,0.223-2.132,1.978-2.05,3.453
		c0.217,3.869,4.596,6.488,3.532,10.692c-0.944,5.988-0.018,12.121,2.654,17.563c-0.009,3.753-6.159,7.589-0.377,11.124
		c3.608,2.451,8.198,2.949,12.248,1.329c3.501-0.846,5.896-4.075,5.687-7.671c-0.207-4.225-3.8-7.481-8.023-7.273
		c-0.27,0.013-0.538,0.04-0.805,0.082C360.086,486.174,357.157,486.969,354.277,487.917z M588.943,237.498
		c10.493-9.161,10.614-22.486,13.906-34.548c1.156-4.236-4.815-1.339-4.5-4.675c0.301-3.181,5.892-3.107,4.438-7.278
		c-0.43-0.729-0.96-1.394-1.573-1.977c-5.836,4.483-10.244,10.565-12.689,17.506c-2.141,6.832-11.566,9.615-10.503,20.218
		c3.338-3.631,5.666-6.167,7.996-8.7c1.342-1.458,2.969-3.088,4.753-1.148c1.913,2.08,5.771,3.817,3.478,7.573
		c-1.642,2.125-3.526,4.051-5.614,5.74c-0.218-2.625,0.137-5.742-4.242-4.49c-8.747,3.082-15.245,10.515-17.131,19.594
		c4.989-0.63,9.51-3.257,12.528-7.279c1.903-3.811,5.2-6.743,9.208-8.187c-0.289,2.294-0.578,4.588-0.866,6.882
		c-3.714,2.285-6.769,5.496-8.865,9.319C586.97,247.698,586.977,241.495,588.943,237.498z M539.343,284.57
		c-4.025,1.539-7.417,4.385-9.633,8.081c-2.622,4.04-7.845,5.492-12.176,3.384c7.011-7.616,13.298-15.867,18.779-24.648
		c3.88-4.65,3.256-11.564-1.394-15.445c-1.337-1.115-2.92-1.896-4.619-2.278c-3.479-0.682-7.163-0.024-7.687-4.938
		c-0.118-1.107-0.832-1.462-1.665-0.757c-0.945,0.585-1.682,1.455-2.104,2.483c-0.427,3.458,2.104,4.242,4.813,5.354
		c8.321,3.416,9.343,7.394,4.257,14.937c-2.163,1.661-3.713,3.994-4.406,6.631c-0.109,5.941-3.563,11.311-8.922,13.875
		c-5.59,4.356-7.985,11.665-6.058,18.485c2.614,4.457,8.348,5.95,12.805,3.336c0.46-0.27,0.896-0.579,1.304-0.923
		c6.229-8.83,11.699-18.173,16.351-27.928c9.999-7.365,19.457-15.438,28.3-24.157c-11.486-0.882-17.554,5.271-24.34,9.568
		C537.001,273.396,540.653,279.611,539.343,284.57L539.343,284.57z M236.553,545.089l-0.41-0.412
		c3.271,4.212,9.057,4.008,12.815,7.231c2.991,1.823,6.448,2.738,9.949,2.633c4.431,0.795,5.679-1.635,4.823-5.435
		c-0.88-3.909-0.466-9.189-7.192-8.016c-1.959,0.24-3.911-0.503-5.214-1.985c-15.548-14.455-35.431-24.168-46.947-43.085
		c-0.845-2.531-3.582-3.898-6.113-3.054c-0.329,0.109-0.646,0.255-0.944,0.433c-0.599,4.521,0.587,9.097,3.307,12.758
		c0.883,1.15,2.523,1.649,1.828,3.688c-2.728,7.994,2.574,12.98,6.951,18.351C216.299,536.718,225.862,542.668,236.553,545.089z
		 M793.537,511.291c2.754,1.5,6.151,1.115,8.5-0.961c4.608-5.914,5.449,0.725,4.901,1.905c-4.094,8.827,3.22,9.114,8.189,12.493
		c0.798-11.09-3.708-20.717-2.157-30.752c0.057-1.211-0.85-2.251-2.057-2.361c-0.922-0.303-1.913,0.2-2.216,1.121
		c-0.076,0.234-0.104,0.483-0.077,0.729c0.662,3.542-1.125,7.089-4.366,8.664c-3.407,1.056-7.118,0.045-9.52-2.594
		c-1.715-0.834-3.617-1.205-5.52-1.077c-5.739,0.724-10.979-3.343-11.702-9.082c-0.07-0.555-0.096-1.114-0.076-1.674
		c-5.695-0.777-11.419,1.224-15.389,5.382c-3.859,2.918-3.434,10.122-9.649,12.38c1.987,0.874,4.233,0.957,6.279,0.232
		c1.197-0.056,2.15-1.021,2.19-2.219l-0.068-0.145c0.524,1.841,1.526,3.511,2.904,4.84c7.926,2.445,10.391,9.603,14.19,15.586
		c0.913,3.313,3.615,5.826,6.984,6.499c0.435-7.571,10.227-10.453,8.933-19.175L793.537,511.291z M491.373,404.71
		c3.636,2.021,4.344,9.044,10.71,6.298c0.586-0.452,0.938-1.143,0.961-1.883c-2.568-3.957-7.498-5.662-11.962-4.138
		c-0.765-10.324-1.71-19.931,8.274-27.945c9.132-7.33,16.589-6.991,20.675,3.877c3.395,9.027,5.301,10.616,13.936,8.535
		c6.668-2.004,13.785-1.955,20.425,0.141c8.509,2.881,11.248-0.608,8.699-9.184c-0.552-1.859-0.783-3.831-1.473-5.631
		c-3.207-8.379-7.624-16.244-13.111-23.342c-1.179-2.158-3.884-2.953-6.042-1.774c-0.392,0.213-0.748,0.485-1.059,0.805
		c-2.593,2.598,0.346,3.753,1.995,5.26c5.265,4.244,6.419,11.805,2.658,17.426c-4.831,5.238-12.302,7.124-19.04,4.806
		c-7.265-3.214-5.97-9.247-4.606-14.903c-3.774-0.242-7.564,0.044-11.26,0.851c-10.92-1.227-21.062,5.82-23.72,16.482
		c-2.09,4.526-5.068,8.585-8.758,11.936c-7.688,8.425-18.881,13.829-22.055,26.388c-0.104,5.46-1.528,10.814-4.154,15.603
		c-0.852,0.844-0.857,2.216-0.015,3.067c0.022,0.022,0.046,0.045,0.07,0.067c7.423,6.275,5.113,16.795,10.629,24.026
		c4.159-2.1,6.905-6.234,7.227-10.883c3.187-9.597,9.336-10.972,18.029-5.84c4.464,2.635,6.862,7.37,11.263,9.763
		c6.813-8.213,18.994-9.35,27.207-2.537c1.76,1.46,3.247,3.221,4.392,5.2c6.703-3.866,14.231-7.262,19.992,0.184
		c5.116,6.61,9.169,4.344,15.547,0.758c-8.054-3.266-13.988-10.279-15.874-18.763c-3.279,7.962-8.621,6.358-12.945,7.759
		c-6.023,1.951-8.358-3.121-11.661-5.976c-3.39-2.93-5.357-0.755-8.123,0.838c-7.299,4.203-14.463,4.368-17.746-1.315
		c-4.674-8.094-9.953-6.888-16.527-4.054c-1.774,0.835-3.706,1.28-5.667,1.307c-5.565,0.192-10.849-2.451-14.032-7.021
		c-3.252-4.129-3.84-9.761-1.51-14.473C468.855,406.881,480.309,402.197,491.373,404.71z M595.476,585.002
		c8.683-11.917,13.144-26.388,12.679-41.125c-0.788-2.188-0.715-4.594,0.203-6.731c8.185-7.176,7.589-17.379,7.504-26.16
		c-0.232-23.948,2.633-48.595-9.988-70.903c-0.734-1.373-1.057-2.929-0.928-4.479c-0.286-7.813-3.006-15.341-7.78-21.531
		c-1.481-3.116-4.96-4.749-8.303-3.897c-1.45,1.042-1.78,3.063-0.738,4.513c0.154,0.214,0.334,0.409,0.535,0.58
		c4.021,6.131,5.767,13.477,4.933,20.761c0.486,3.87,0.716,7.769,0.689,11.669c0.539,17.477-1.13,34.951-4.969,52.01
		c-4.6,15.209-10.108,30.129-16.496,44.678c-13.984,31.231-33.892,59.454-58.62,83.107c-3.554,3.45-7.028,6.981-11.691,11.622
		c10.187,0.487,15.896-6.38,23.414-7.291c7.991-0.969,13.152-8.749,21.493-9.34c0.119,2.925-3.101,4.047-1.775,7.576
		c7.358-4.791,16.473-7.729,20.24-13.922c4.948-8.133,14.271-6.772,19.225-12.912c2.852-2.698,4.978-6.07,6.182-9.807
		c0.314-2.336,1.388-4.503,3.055-6.168L595.476,585.002z M733.389,398.299l0.393-0.517c2.192-3.097,5.164-5.559,8.615-7.136
		c3.374,0.669,6.779-1.001,8.315-4.08c3.691-4.997,3.953,6.145,8.775,5.438c0.771-0.112,1.555-0.123,2.329-0.033
		c4.589,0.296,9.153,0.897,13.663,1.798c5.284,1.337,4.888-7.504,10.211-7.777c0.39-0.02,0.781-0.002,1.479-0.002
		c1.257,3.11,1.188,6.598-0.192,9.655c-0.288,5.586,2.146,10.967,6.531,14.439c1.08,0.259,2.219,0.052,3.14-0.57
		c1.534-1.17,2.697-2.811,4.136-4.124c2.274-3.33,6.407-4.856,10.301-3.804c2.823,2.197,4.188,5.785,3.536,9.303
		c0.127,1.945,0.155,3.896,0.087,5.843c0.541,5.074,2.888,9.786,6.611,13.276c5.585-28.073-0.885-66.176-17.344-88.109
		c-2.983,0.712-1.979,5.909-6.059,5.603c0.04-4.288,1.437-8.453,3.99-11.898c1.914-5.394-3.345-7.586-5.61-10.92
		c-6.104,2.863-7.384,10.085-14.271,11.386c0.097-5.311,3.047-10.159,7.722-12.682c3.392-3.151,4.042-6.722,1.335-8.979
		c-7.495-7.189-14.469-14.903-20.869-23.082c-3.606-5.022-8.583-8.901-14.334-11.173c-5.546-1.901-10.542-5.131-14.552-9.409
		c-8.335-5.25-17.979-7.589-26.21-12.631c-4.938-3.028-10.521-4.846-16.295-5.304c-21.34-2.197-42.882-1.415-64.007,2.325
		c-20.893,3.99-41.105,11.553-61.595,17.626c-1.853,0.613-3.62,1.459-5.26,2.518c-13.304,8.519-24.208,20.298-31.677,34.218
		c-1.994,2.891-2.991,6.353-2.842,9.862c0.544,3.546,4.565,1.242,6.917,1.962c1.386,0.688,2.463,1.87,3.021,3.313
		c1.051,2.512,2.763,4.692,4.953,6.311c10.367,7.604,21.162,14.756,30.723,23.282c8.074,6.517,14.811,14.535,19.836,23.611
		c7.551,12.255,12.396,25.981,14.213,40.261c0.2,2.729,0.902,5.398,2.072,7.872c9.515,21.128,9.255,43.914,11.219,66.279
		c1.074,22.23-1.552,44.484-7.771,65.854c-2.165,5.428-2.96,11.306-2.315,17.114c2.342,4.38,0.689,9.829-3.69,12.17
		c-0.731,0.391-1.513,0.679-2.323,0.855c15.532,11.371,24.282,10.715,40.024-2.387c4.756,4.964-3.88,6.287-3.343,10.635
		c4.441,0,8.355,0.229,12.234-0.04c17.392-1.204,34.968-1.178,51.231-9.145c4.089-1.156,7.16-4.543,7.913-8.725
		c2.117-7.01,6.333-13.201,12.079-17.738c1.604,4.902-4.849,6.162-1.874,11.418c11.859-13.302,24.86-25.538,38.854-36.57
		c1.523-0.854,2.066-2.78,1.213-4.304c-0.137-0.243-0.305-0.468-0.5-0.667c-1.869-5.185-6.377-8.967-11.807-9.908
		c-5.493-0.342-10.459-5.57-15.932-3.911c-4.475,1.631-9.475-0.177-11.873-4.291c-5.4-6.98-11.599-13.305-18.468-18.844
		c-8.636-6.138-7.844-15.257-10.121-23.462c-0.349-2.078,1.054-4.046,3.132-4.395c0.314-0.053,0.635-0.065,0.953-0.038
		c0.922,4.065-1.163,9.688,5.36,11.187c1.377,0.791,2.094,2.373,1.782,3.93c0.837,7.009,5.679,6.741,11.176,6.977
		c0.009-4.161-0.526-8.307-1.591-12.329c-2.335-11.495-0.295-23.448,5.721-33.519c5.189-8.257,10.818-16.228,16.863-23.88
		c2.338-1.47,5.221-1.782,7.818-0.848c9.166,1.816,18.059,4.813,26.453,8.918c6.277,3.574,8.989,1.538,9.605-5.894
		c-0.002-1.323-0.148-2.643-0.437-3.935c-8.973-0.218-18.179,2.467-24.995-6.164c-1.803-1.43-3.879-2.476-6.102-3.074
		c-6.05-2.86-9.408-1.454-10.147,4.801c-0.074,2.311-0.739,4.563-1.932,6.543c-3.92-2.004-6.463,1.866-9.596,2.271
		c-9.185,0.723-17.131,6.673-20.409,15.284c-4.203,5.803-6.799,12.612-7.525,19.741c0.09,1.925-0.377,3.943-4.687,3.914
		c3.452-8.53-12.865-16.197,0.326-25.401c-0.469-0.941-0.813-1.938-1.025-2.969c1.755-5.242,0.86-10.967,6.983-15.162
		C715.662,409.495,724.276,403.48,733.389,398.299z M266.085,438.634c2.485-1.182,4.27-3.464,4.816-6.161
		c1.805-6.79,4.793-13.209,8.827-18.962c10.742-10.455,14.589-24.692,22.779-36.448c13.3-20.157,30.252-37.65,49.981-51.578
		c14.947-10.782,32.33-17.7,50.6-20.137c16.201-1.686,32.117-6.635,48.57-5.221c3.408,1.074,7.041-0.818,8.115-4.226
		c0.391-1.239,0.399-2.566,0.025-3.811c-0.059-1.953,0.197-3.925,0.021-5.862c-1.696-19.899-9.612-38.761-22.627-53.909
		c-5.859-6.931-5.064-10.504,3.344-13.399c10.276-2.547,21.148-0.757,30.066,4.951c2.898,1.369,5.028,2.324,6.757-0.95
		c1.308-1.888,0.837-4.479-1.051-5.786c-0.158-0.109-0.323-0.208-0.494-0.294c-7.479-4.157-14.826-11.082-22.61-11.649
		c-18.115-1.321-35.188-9.648-53.735-7.229c-5.028-0.259-10.069-0.197-15.09,0.185c-10.868,2.977-22.073,4.213-32.81,8.177
		c-20.817,7.804-39.638,20.141-55.097,36.118c-13.851,13.834-24.33,30.672-30.624,49.208c-7.019,20.864-14.847,41.618-13.554,64.536
		c0.506,8.975,2.564,17.744,2.49,26.696c-0.15,18.113,6.048,35.049,9.487,52.496C264.722,436.543,265.333,437.639,266.085,438.634
		L266.085,438.634z M429.84,643.341c11.325-0.876,22.44-3.534,32.937-7.876c6.544-3.377,13.591-5.676,20.868-6.808
		c10.119-1.521,19.484-6.248,26.717-13.488c9.901-11.021,19.23-22.541,27.953-34.517c17.32-22.605,30.375-48.181,38.521-75.47
		c2.34-6.995,3.324-14.373,2.9-21.738c-13.654,10.035-16.865,10.226-28.675-0.102c-4.983-4.358-6.254-0.07-8.907,1.44
		c0.448,1.805,1.776,3.264,3.531,3.879c12.12,7.073,12.73,8.793,8.166,21.089c-0.749,2.231-2.148,4.188-4.019,5.618
		c-4.868,3.581-5.001,6.848,0.736,9.315c4.914,2.084,7.277,7.701,5.33,12.672c-0.728,8.117-7.897,14.107-16.015,13.38
		c-2.441-0.219-4.789-1.042-6.832-2.396c-5.269-2.865-9.614-5.188-13.245,1.81c9.052,4.819,10.956,8.013,9.724,16.062
		c-2.918,7.745-9.979,13.163-18.215,13.977c-13.944,2.063-13.226-10.339-17.553-17.895c-3.346,7.45-12.098,10.778-19.548,7.433
		c-1.624-0.729-3.104-1.746-4.366-3.002c-2.394-3.112-6.857-3.696-9.971-1.303c-0.354,0.272-0.682,0.577-0.979,0.911
		c-5.345,3.878-12.709,3.324-17.414-1.309c-4.152-4.525-3.892-11.549,0.584-15.753c3.745-6.591,12.124-8.897,18.714-5.152
		c0.927,0.527,1.789,1.16,2.569,1.886c3.12,3.64,8.586,4.095,12.265,1.021c6.149-6.127,15.786-7.021,22.958-2.127
		c1.656-1.957,1.414-4.887-0.543-6.544c-0.121-0.103-0.247-0.199-0.378-0.289c-10.135-8.043-10.119-8.053-5.836-20.016
		c0.35-0.69,0.472-1.474,0.351-2.238c-2.621-6.576,3.352-8.278,6.719-10.467c4.616-2.504,10.322-1.73,14.104,1.912
		c1.175,2.158,3.38,3.56,5.833,3.707c2.937-2.512,4.404-6.338,3.9-10.169c-2.517-6.167,0.442-13.207,6.609-15.724
		c0.248-0.102,0.499-0.194,0.753-0.278l-5.731-13.209c-1.483,0.988-2.476,1.572-3.386,2.267c-8.631,6.574-9.23,6.467-17.002-0.581
		c-2.417-2.557-5.474-4.419-8.854-5.393c-4.74,6.699-12.23,10.924-20.415,11.515c-5.201,0.411-8.664-5.864-13.006-2.888
		c-3.57,2.448-3.836,8.41-8.734,10.352c-4.495,2.242-8.097,5.941-10.217,10.495c-4.042,6.54-8.337,14.327-18.857,11.389
		c1.819-2.783,7.649-1.466,5.628-7.356c-1.304-3.797,3.08-5.867,5.114-8.516c1.371-1.786,3.74-2.771,5.31-4.445
		c2.267-2.419,1.24-4.458-1.653-5.093c-9.989-0.981-18.96,6.127-20.291,16.075c0.091,2.997,0.772,6.037-2.345,6.547
		c-9.076,1.486-8.059,8.024-7.693,14.162c1.334,11.204-6.178,21.548-17.244,23.747c-1.721,0.448-3.552,0.028-4.905-1.125
		c-10.423-6.463-10.597-6.2-19.531,2.361c-2.337,2.239-3.493,4.166-0.985,6.848c0.986,1.714,3.174,2.304,4.887,1.318
		c0.427-0.246,0.798-0.576,1.091-0.972c2.662-2.276,5.879-3.807,9.324-4.438c3.945-2.16,8.895-0.712,11.055,3.233
		c0.192,0.352,0.358,0.716,0.497,1.092c6.41,10.291,3.266,23.83-7.025,30.241c-1.778,1.107-3.706,1.955-5.725,2.517
		c-3.799,1.314-8.003-0.159-10.15-3.558c-3.095-4.345-3.527-10.046-1.124-14.808c-2.541-0.987-5.421,0.029-6.78,2.392
		c-8.764,9.063-9.972,9.339-20.766,4.19c-6.446-3.075-6.572-2.967-7.57,6.566c5.299,0.445,11.747-1.989,15.537,2.7
		c8.055,8.167,17.972,14.256,28.899,17.742c5.998,2.732,8.679,1.456,10.97-3.32c6.572-13.698,12.892-27.517,19.281-41.301
		c0.358-0.694,0.529-1.472,0.496-2.253c-1.71-14.649,9.191-23.102,16.426-33.314c1.653-2.83,5.004-4.192,8.162-3.319
		c3.519,1.136,5.731,4.614,5.27,8.282c0.044,5.077-1.104,10.094-3.353,14.646c-3.848,6.391-6.035,13.642-6.365,21.094
		c-1.141,15.937-7.16,31.135-17.239,43.53c-4.411,7.63-12.9,11.948-21.665,11.02c-3.362-1.075-6.96,0.778-8.035,4.141
		c-0.026,0.084-0.052,0.168-0.075,0.253c-1.196,2.465-2.921,4.638-5.051,6.362c-3.932,4.416-10.699,4.808-15.115,0.875
		c-1.678-1.495-2.843-3.479-3.33-5.672c-1.286-4.412-1.049-9.129,0.674-13.39c-6.119,3.233-10.631,6.124-15.514,8.093
		c-10.042,4.047-23.299-4.242-20.14-13.115c2.272-6.384,0.195-12.484,3.519-18.571c-8.666,2.274-17.896,0.471-25.068-4.899
		c-4.754-2.432-6.814-8.129-4.716-13.039c1.865-3.692,1.553-8.11-0.812-11.505c-6.287,2.502-13.363,2.053-19.283-1.222
		c-0.869,5.741,0.36,11.604,3.461,16.513c7.888,15.834,20.614,28.234,30.593,42.595c1.471,1.828,3.179,3.451,5.08,4.826
		c12.015,9.924,24.241,19.362,40.657,20.856c3.101,0.474,6.092,1.502,8.829,3.035c15.142,7.497,30.892,3.925,46.669,4.176
		c-0.604-3.045-2.483-5.685-5.163-7.25c-3.666-4.436-3.12-10.986,1.229-14.754c8.013-5.37,14.835-14.205,26.819-9.995
		c2.509,0.882,6.245-1.374,8.144,2.214c1.881,3.578,1.14,7.973-1.812,10.736C436.784,631.51,434.052,637.578,429.84,643.341z
		 M308.424,510.465c-4.046,0.488-7.479,1.108-10.934,1.274c-6.489,0.312-16.905-8.272-15.951-13.746
		c2.368-13.578,6.001-23.656,23.105-20.729c0.767,0.131,1.503,0.454,2.272,0.563c2.25,0.553,4.523-0.823,5.077-3.073
		c0.132-0.539,0.156-1.1,0.071-1.647c0.512-1.738-0.481-3.562-2.22-4.073c-0.624-0.184-1.288-0.178-1.909,0.017
		c-3.914,0.334-7.84-0.47-11.308-2.315c-7.789-3.284-12.569-11.219-11.831-19.64c1.953-7.341,7.886-12.947,15.326-14.48
		c3.646,0.096,7.271-0.588,10.632-2.005c-1.687-6.717-2.199-13.674-1.514-20.564c0.617-6.32,4.038-12.029,9.318-15.556
		c3.095-3.021,8.051-2.961,11.071,0.133c0.735,0.753,1.311,1.646,1.693,2.626c0.741,1.293,0.549,3.102,1.227,4.452
		c2.646,5.275,11.672,9.209,13.852,5.805c5.202-8.121,20.261-8.308,17.962-22.341c0.239-0.746,0.749-1.376,1.428-1.768
		c3.474-3.531,5.734-8.075,6.458-12.975c-6.11-1.989-11.308-6.096-14.658-11.578c-2.665-5.43-1.498-11.96,2.882-16.131
		c2.237-3.766,7.104-5.004,10.868-2.767c0.489,0.29,0.945,0.632,1.361,1.021c3.292,2.666,5.362,1.721,7.524-1.581
		c3.721-5.038,8.217-9.454,13.32-13.083c1.856-2.184,5.132-2.449,7.315-0.593c0.029,0.025,0.059,0.05,0.087,0.076
		c7.113,8.293,14.146,5.306,21.421,0.629c0.648-0.432,1.346-0.784,2.079-1.048c7.049-1.362,14.097,2.359,16.948,8.948
		c2.395,5.598,0.046,12.094-5.375,14.867c-3.145,0.6-6.082,1.998-8.531,4.059c2.197,2.732,6.193,3.166,8.925,0.969
		c0.1-0.08,0.197-0.163,0.291-0.249c4.132-2.913,9.842-1.925,12.755,2.206c0.171,0.243,0.331,0.495,0.478,0.753
		c1.318,1.593,1.579,4.62,5.353,4.033c7.581-10.533,0.899-22.049,1.543-33.124c2.972-0.275,1.93,3.353,3.069,3.675
		c8.884,2.506,8.928,9.823,8.165,16.39c-0.607,9.289-2.88,18.393-6.709,26.878c-3.681,9.424-8.332,18.439-13.879,26.9
		c-6.266,7.737-6.669,18.785-14.851,25.38c-1.472,1.187-0.102,2.928,0.487,4.307c2.296,5.382,4.656,10.736,6.978,16.106
		c2.656,7.736,3.588,15.959,2.729,24.094c-0.052,2.646-0.003,6.257,4.129,5.257c2.892-0.7,7.339-0.533,6.181-6.2
		c-0.501-7.746-1.454-15.456-2.856-23.091c-7.492-20.301-1.254-43.118,15.524-56.783c6.354-5.721,11.683-12.488,15.753-20.008
		c6.001-10.999,14.188-20.021,29.125-15.4c3.469,1.004,7.188-0.346,9.205-3.342c4.379-4.763,10.421-7.663,16.876-8.1
		c0.592-3.806-4.813-4.435-3.478-9.026c4.647,0.048,8.605,3.392,9.43,7.966c0.634,1.706,0.783,5.137,2.789,3.508
		c4.41-3.58,8.482,2.729,13.487-0.395c-8.628-7.901-19.014-12.219-26.108-20.63c-2.53-2.741-6.706-3.17-9.741-1
		c-3.221,2.306-7.646,1.896-10.389-0.961c-11.659-7.7-25.432-8.528-38.636-11.041c-4.073-0.775-10.016,2.783-10.171-5.411
		c-0.02-1.028-2.469-1.219-2.434-0.321c0.199,5.123-7.956,1.725-7.18,7.377c0.255,0.914-0.278,1.861-1.192,2.116
		c-0.688,0.192-1.425-0.063-1.848-0.64c-6.636-6.873-14.503-3.94-22.016-2.905c-31.278,4.308-61.353,11.465-85.336,34.28
		c-12.363,10.754-23.354,22.99-32.727,36.431c-7.425,11.741-11.553,25.552-22.33,35.237c-0.785,0.88-1.333,1.945-1.591,3.096
		c-5.648,18.504-15.922,35.551-18.406,54.984c-2.377,18.062-1.359,36.407,3.002,54.095c0.263,1.06,0.68,1.413,1.387,1.081
		c3.117-1.767,5.527-4.557,6.82-7.897c2.491-4.69,8.313-6.474,13.003-3.983c0.312,0.166,0.615,0.349,0.906,0.547
		c4.531,2.282,9.611,3.245,14.663,2.777C305.507,519.048,309.656,515.71,308.424,510.465z M209.503,481.579
		c2.855,2.943,5.235,6.313,7.055,9.987c1.553,5.25,7.261-1.456,8.68,4.084c1.126,4.395,1.826-6.074,4.427-0.701
		c1.75,1.996,2.076,4.87,0.817,7.208c-4.688,1.842-6.593-5.667-11.813-2.939c3.062,8.161,9.358,14.695,17.4,18.057
		c4.968,1.226,4.5,6.529,8.683,6.576c4.485,0.138,8.047,3.817,8.038,8.305c0.283,1.117,1.014,2.069,2.019,2.633
		c1.931,0.801,3.682,4.143,5.902,1.808c1.7-1.454,1.899-4.012,0.444-5.711c-0.416-0.486-0.942-0.867-1.534-1.111
		c-4.963-4.187-8.95-9.408-11.68-15.3c-6.971-9.558-7.8-24.003-21.455-28.414c-1.693-0.548-1.125-1.691-0.989-2.785
		c1.241-9.976-8.16-7.438-12.681-10.157c-4.803-2.065-10.386-0.904-13.966,2.906c-2.884,2.354-3.495,6.52-1.408,9.602
		c2.788,4.09,4.351-0.782,6.484-1.463C205.838,483.419,207.7,482.557,209.503,481.579z M758.287,439.708
		c-5.075-4.638-9.882-2.07-14.492-2.155c-2.81-0.052-11.335,18.316-10.751,21.929c0.297,1.099,0.988,2.05,1.941,2.672
		c0.768,0.513,1.806,0.307,2.319-0.461c0.151-0.227,0.246-0.487,0.273-0.759c0.341-3.542,3.488-6.137,7.031-5.796
		c0.506,0.049,1.005,0.157,1.485,0.323c2.745,0.258,3.144-1.497,2.538-3.752c-0.866-3.224,0.68-3.058,2.914-2.112
		c1.622,0.686,4.086,0.107,3.955-1.143c-0.728-6.941,3.063-3.863,5.514-2.518c6.34,3.226,13.793,3.435,20.304,0.568
		c2.394-0.354,4.103-2.504,3.905-4.916c0.348-2.159-1.12-4.19-3.278-4.538c-0.277-0.045-0.559-0.061-0.839-0.045
		c-5.031,0.019-9.938-1.569-14.003-4.532c-5.484-3.112-12.103-3.501-17.913-1.052C751.336,435.751,757.947,431.085,758.287,439.708
		L758.287,439.708z M329.774,561.424c8.276-4.164,7.936-11.932,11.493-17.298c2.355-3.554-4.751-6.323-5.592-10.558
		c-0.024-1.546-0.67-3.018-1.791-4.083c-5.208,1.291-10.574,1.825-15.934,1.588c-2.553-0.435-4.588-0.338-4.968,2.958
		c-1.376,6.615-3.866,12.949-7.364,18.73C316.637,550.138,326.159,548.004,329.774,561.424z M237.121,338.681
		c-0.746,2.277-2.93,3.766-5.322,3.628c-1.401,0.143-3.977,1.51-3.078,1.888c7.23,3.039,1.099,3.727-0.68,5.29
		c-1.74,1.009-2.333,3.239-1.323,4.979c0.438,0.755,1.132,1.327,1.956,1.613c2.883,2.419,7.182,2.043,9.601-0.841
		c0.729-0.869,1.23-1.906,1.457-3.018c0.576-2.65,0.863-5.354,0.856-8.066c-0.633-8.35,0.308-16.744,2.773-24.746
		c0.655-1.419,0.023-4.268-0.818-4.026c-6.797,1.958-5.847-8.983-13.031-7.073c2.976,5.595,5.938,11.083-0.997,16.067
		c-1.984,1.426,2.427,3.498,1.341,6.823c-5.388-5.623-13.989-6.678-20.576-2.523C220.233,330.547,226.024,339.362,237.121,338.681z
		 M561.021,350.277c-0.377,6.346,6.578,7.051,7.02,12.179c0.952,11.039,8.251,19.722,11.795,29.857
		c1.282,3.667,7.84,4.754,6.541,10.688c0.031,0.857,0.751,1.526,1.607,1.495c0.308-0.012,0.605-0.113,0.854-0.294
		c0.897-0.607,1.529-1.535,1.765-2.593c-3.011-4.755,1.985-11.746-5.465-15.964c-3.801-3.322-5.687-8.326-5.022-13.331
		c1.027-8.019-6.823-12.701-9.736-19.438C567.539,351.213,564.313,350.317,561.021,350.277z M318.59,435.561
		c7.022,8.784,3.721,17.448,0.056,26.119c8.575,0.261,13.688-5.09,21.092-7.104c-10.683-12.578-2.606-22.755,4.648-35.396
		c-4.747,2.644-8.783,6.397-11.761,10.942C329.549,434.774,324.155,433.271,318.59,435.561z M393.171,485.644
		c-3.8,0.481-6.854,3.359-7.562,7.123c-0.363,5.087-3.574,10.795,1.916,15.167c7.474,5.951,10.668,5.236,15.711-4.118
		c1.425-2.643,6.31-4.852,2.533-8.857C402.253,491.022,397.965,487.852,393.171,485.644L393.171,485.644z M370.726,467.433
		c4.663-0.175,9.2-1.559,13.167-4.016c3.846-3.93,4.87-9.823,2.577-14.819c-2.225-2.98-6.444-3.594-9.425-1.369
		c-0.608,0.454-1.135,1.007-1.559,1.637c-2.966,1.792-6.031,3.415-9.181,4.859c-3.655,1.773-5.518,5.909-4.423,9.822
		C363.488,466.826,367.225,468.468,370.726,467.433L370.726,467.433z M423.431,536.912c-3.915,6.124-11.839,8.718-9.346,15.991
		c1.547,4.393,1.114,9.239-1.186,13.288c-5.044,10.453-6.308,22.579-14.124,31.814c-0.779,1.278-0.379,2.946,0.896,3.731
		C415.059,583.647,423.483,560.66,423.431,536.912z M467.638,298.104c20.376,8.075,21.827,7.969,32.715-11.226
		c1.077-1.633,1.887-3.428,2.397-5.317c0.754-3.972,3.406-9.519-1.77-11.239c-5.549-1.843-4.595,6.037-8.18,8.307
		c-1.784,1.129,0.989,3.3,1.351,5.035c1.333,6.401-0.063,7.332-6.444,9.082C480.791,293.539,474.029,295.344,467.638,298.104
		L467.638,298.104z M400.569,517.287c-7.716,0.454-15.297-2.167-21.084-7.29c-4.547-3.835-10.483-2.503-18.537,0.193
		c8.347,2.221,13.195,6.392,18.783,7.802c5.246,1.323,7.011,2.456,6.373,8.191c-0.618,5.555,3.238,7.328,8.18,4.342
		C399.002,527.918,401.531,522.591,400.569,517.287z M578.551,196.834c-4.174,1.083-4.795,5.874-7.771,7.656
		c-7.404,4.433-7.673,4.118-8.518,6.891c-3.259,10.558-7.187,20.896-11.759,30.955c-0.669,0.857-0.516,2.094,0.342,2.763
		c0.078,0.062,0.161,0.117,0.248,0.166c1.005,0.483,2.148,0.595,3.229,0.315c1.514-0.453,2.679-1.668,3.065-3.201
		c3.702-13.81,10.131-26.738,18.907-38.025C578.518,202.547,579.412,199.565,578.551,196.834z M443.106,656.786
		c4.224,2.794,9.629,3.081,14.125,0.75c4.336-2.6,9.421-3.662,14.436-3.017c4.061,0.836,8.257-0.581,10.979-3.708
		c2.077-1.727,4.501-2.985,7.108-3.689c5.504-2.54,10.027-6.81,12.881-12.157C483.24,643.408,463.362,650.694,443.106,656.786z
		 M355.604,536.379c3.878-0.398,7.576-1.838,10.703-4.166c2.346-1.488,3.648-4.174,3.366-6.937
		c-0.686-3.145-3.245-5.536-6.428-6.008c-5.077-0.796-10.169,1.337-13.163,5.513c-2.706,1.773-3.834,5.176-2.723,8.213
		C349.393,535.399,352.469,536.662,355.604,536.379z M404.64,406.27c-1.394-5.062,0.522-10.454,4.798-13.501
		c3.037-3.649,2.541-9.07-1.108-12.107c-0.437-0.364-0.909-0.683-1.409-0.954c-1.821-1.244-4.504-1.722-4.701,0.586
		c-0.808,9.449-8.178,15.205-13.004,23.012L404.64,406.27z M799.837,471.665c-0.616-2.954-3.438-4.91-6.421-4.451
		c-8.664,3.497-9.949-2.201-10.265-8.395c-2.781,0.618-4.648,1.041-6.52,1.447c-6.243,1.354-7.263,2.89-4.313,8.284
		c2.407,3.875,5.05,7.599,7.914,11.149C786.258,475.917,792.89,473.199,799.837,471.665z M313.407,445.636
		c0.21-3.517-2.405-6.566-5.912-6.896c-6.151,1.217-11.051,5.869-12.586,11.949c-0.765,4.213,2.031,8.248,6.244,9.013
		c0.192,0.035,0.385,0.063,0.58,0.083C306.581,460.397,312.921,452.922,313.407,445.636z M333.656,499.025
		c-0.762,0.072-1.492,0.333-2.128,0.758c-1.699,6.922-9.599,9.359-11.547,16.091c-0.734,1.387-0.561,3.079,0.44,4.288
		c1.354,1.483,3.504,1.938,5.343,1.128c5.71-2.577,10.489-6.849,13.689-12.234c1.681-3.486,0.217-7.674-3.27-9.354
		C335.392,499.319,334.533,499.09,333.656,499.025z M214.787,371.675c5.023-0.94,10.149-1.205,15.242-0.788
		c2.299,0.148,4.605-0.125,6.806-0.804c2.733-0.741,4.423-3.474,3.865-6.25c0.318-2.072-1.104-4.01-3.176-4.328
		c-0.708-0.109-1.432-0.015-2.089,0.27c-4.384,0.747-7.984-3.358-12.088-2.598c-5.918,1.097-1.862,8.719-6.383,11.176
		C216.084,369.353,215.352,370.471,214.787,371.675z M825.773,447.951c-6.082,0.604-12.223,0.106-18.129-1.47
		c-2.354-0.588-6.333-1.618-7.266,1.426c-1.508,4.916-7.894,4.302-9.514,9.071c5.115,1.769,9.766,5.373,14.631,1.829
		C811.72,454.274,819.211,452.637,825.773,447.951L825.773,447.951z M489.614,416.77c0.055-3.07-2.356-5.621-5.426-5.737
		c-7.205,0.419-12.706,6.599-12.287,13.804c0.007,0.12,0.016,0.24,0.026,0.36c0.503,1.91,2.113,3.326,4.073,3.58
		C482.957,428.887,488.854,423.685,489.614,416.77z M401.465,459.397c-1.496-0.991-3.489-0.768-4.729,0.532
		c-1.038,1.714-0.648,3.932,0.912,5.188c1.3,1.41,2.365,3.02,3.154,4.769c2.136,5.795,5.622,5.322,10.012,2.702
		c2.674-1.56,4.949-3.719,6.646-6.309c1.546-1.214,2.08-3.317,1.302-5.122c-0.987-1.256-2.674-1.729-4.17-1.169
		C410.237,460.917,405.719,460.713,401.465,459.397z M400.404,419.638c-0.081-6.558-2.024-8.87-7.043-8.848
		c-4.971,0.022-6.552,1.952-5.287,8.173c0.634,2.195,0.116,4.563-1.377,6.293c-1.649,2.082-4,4.451-1.094,6.966
		c2.359,1.622,5.554,1.253,7.48-0.865C397.687,429.31,400.584,424.672,400.404,419.638z M394.214,350.512
		c3.149-1.235,7.162-2.689,11.063-4.399c1.606-0.405,2.596-2.019,2.229-3.634c-1.115-3.739-3.751-6.837-7.263-8.537
		c-3.096-1.029-6.479,0.353-7.967,3.255c-1.28,1.947-2.617,3.87-3.723,5.915C386.386,347.118,388.694,350.67,394.214,350.512
		L394.214,350.512z M390.923,381.904c-0.2-2.054-1.382-3.884-3.172-4.91c-2.014-1.369-4.756-0.847-6.125,1.167
		c-0.037,0.054-0.072,0.109-0.106,0.165c-2.249,4.019-5.019,7.724-8.237,11.018c-1.863,1.931-0.471,3.538,0.375,5.199
		c0.661,1.475,2.243,2.308,3.833,2.017C383.908,393.893,388.824,388.53,390.923,381.904L390.923,381.904z M365.642,443.4
		c8.121-1.39,10.05-3.408,9.169-10.673c-0.45-3.856,0.735-7.726,3.268-10.67c1.229-1.606,3.066-3.542,0.303-5.598
		C370.418,423.836,360.216,429.939,365.642,443.4z M297.323,530.462c-2.665,0-4.231-0.059-5.792,0.011
		c-4.004,0.565-7.128,3.75-7.617,7.765c-1.052,2.235-0.259,4.904,1.842,6.202c2.897,1.365,6.301,1.095,8.946-0.711
		c3.525-1.745,6.541-4.37,8.754-7.622c1.03-1.19,0.9-2.991-0.291-4.021c-0.358-0.31-0.787-0.525-1.249-0.627
		C300.428,530.955,298.887,530.621,297.323,530.462z M422.569,365.34c-0.061-5.476-0.649-6.45-4.013-6.63
		c-6.149,0.102-11.053,5.169-10.951,11.319c0.005,0.339,0.026,0.678,0.063,1.016c-0.787,2.866,0.898,5.829,3.765,6.616
		c0.678,0.187,1.386,0.238,2.083,0.152c5.927-0.92,9.985-6.471,9.065-12.398C422.577,365.39,422.573,365.365,422.569,365.34z
		 M329.544,481.281c5.389,1.231,10.756-2.139,11.987-7.528c0.375-1.64,0.33-3.348-0.13-4.966c-0.466-1.783-1.977-4.555-3.735-2.806
		c-3.747,3.726-8.902,2.411-12.844,4.712c-2.496,1.032-3.683,3.893-2.65,6.389c0.527,1.274,1.568,2.267,2.866,2.733
		C326.484,480.459,327.995,480.95,329.544,481.281z M465.106,251.794c2.034,8.275,3.334,16.714,3.883,25.217
		c-0.589,1.938,0.424,4.001,2.317,4.721c2.737,0.108,5.359-1.104,7.05-3.26c1.412-1.242,3.018-3.438,1.3-4.976
		C472.897,267.442,472.203,257.567,465.106,251.794z M309.553,491.896c0.564-3.462-1.699-6.754-5.134-7.464
		c-5.534-0.087-6.634,6.546-10.74,9.269c-2.44,1.617-0.391,4.91,1.602,6.92c0.546,0.531,1.224,0.908,1.963,1.091
		C303.322,502.295,308.769,497.951,309.553,491.896z M571.685,422.126c1.473,0.36,2.586,0.702,3.725,0.896
		c1.301,0.595,2.837,0.022,3.431-1.278c0.066-0.145,0.119-0.295,0.158-0.45c0.398-1.517,0-3.132-1.058-4.29
		c-1.5-1.955-4.282-2.365-6.282-0.925c-4.445,3.146-10.6,2.094-13.747-2.353c-0.137-0.193-0.267-0.392-0.39-0.595
		c-1.028-1.149-2.119-2.24-3.269-3.269c-1.044-1.242-2.898-1.402-4.141-0.358c-0.302,0.254-0.549,0.565-0.728,0.916
		c-0.941,1.171-0.756,2.884,0.415,3.825c0.106,0.086,0.22,0.163,0.338,0.231c6.403,1.851,8.897,13.516,18.506,7.396
		C569.661,421.673,570.714,421.761,571.685,422.126z M416.037,406.125c6.781-2.138,11.738-7.971,12.755-15.008
		c-0.455-2.429-2.794-4.029-5.224-3.573c-0.406,0.076-0.802,0.209-1.172,0.394c-5.563,2.939-9.093,8.666-9.219,14.957
		C413.338,404.474,414.489,405.773,416.037,406.125z M684.121,216.079c3.419-1.084,6.313-3.402,8.116-6.503
		c0.449-1.979,2.418-3.219,4.396-2.77c0.383,0.087,0.749,0.234,1.084,0.437c7.993,4.492,11.96-1.82,17.841-5.337
		c-4.919-3.275-8.192,0.721-12.072,0.347C691.581,201.107,687.961,203.86,684.121,216.079z M402.761,358.16
		c-15.124-0.151-15.124-0.151-17.9,9.261C396.573,372.573,396.573,372.573,402.761,358.16z M376.99,488.431
		c3.562-2.875,7.658-5.017,12.052-6.301c1.961,0.017,3.563-1.561,3.58-3.521c0.004-0.478-0.089-0.951-0.272-1.393
		c-0.77-2.25-2.856-3.786-5.233-3.852C377.573,472.85,374.736,476.62,376.99,488.431z M304.41,564.316
		c1.652,2.884,3.687,5.531,6.048,7.87c2.681,2.077,6.538,1.589,8.615-1.092c0.198-0.255,0.375-0.525,0.53-0.809
		c2.013-2.546,1.923-6.164-0.213-8.607c-1.37-2.293-4.339-3.042-6.633-1.672c-0.525,0.313-0.986,0.724-1.358,1.21
		C309.278,562.669,306.909,563.72,304.41,564.316z M332.998,604.636c3.559,1.802,7.8,1.61,11.181-0.507
		c2.97-1.194,4.89-4.104,4.819-7.304c-0.327-3.579-2.755-6.62-6.174-7.729c-1.432-0.381-2.96,0.018-4.022,1.051
		C343.4,597.562,332.812,598.172,332.998,604.636L332.998,604.636z M544.201,503.148c0.364-3.957-2.549-7.461-6.506-7.825
		c-0.526-0.049-1.058-0.039-1.582,0.028c-7.623,0.959-0.96,9.134-5.247,12.711c-1.182,0.986,1.303,4.139,4.115,4.107
		C539.764,511.64,543.567,507.917,544.201,503.148z M421.437,432.783c-0.467-1.975-0.076-6.673-4.176-7.105
		c-5.234-0.554-3.751,4.486-4.428,7.614c-0.319,1.476-1.566,2.764-1.821,4.235c-1.392,2.447-0.783,5.544,1.431,7.282
		c3.124,1.566,4.754-1.541,6.703-3.211C421.298,439.208,422.152,435.919,421.437,432.783L421.437,432.783z M518.49,423.805
		c0.376-2.724-1.527-5.235-4.25-5.611c-0.119-0.017-0.237-0.028-0.356-0.036c-3.219-0.438-5.524,0.311-4.492,4.336
		c0.955,3.724-2.462,4.154-4.189,5.987c-1.735,1.57-1.869,4.249-0.3,5.984c0.081,0.09,0.166,0.176,0.255,0.258
		c1.615,1.853,4.397,2.116,6.332,0.601C515.512,432.806,518.107,428.534,518.49,423.805z M492.287,241.289
		c-5.606,0.007-8.773,2.927-12.855,2.671c-4.313-0.271-4.762,3.775-5.002,6.476c-0.488,2.424,1.082,4.786,3.506,5.274
		c0.399,0.081,0.808,0.106,1.213,0.076c2.574-0.149,6.917,2.12,5.887-3.801c-0.342-0.895,0.105-1.898,1.001-2.24
		c0.204-0.078,0.422-0.117,0.641-0.114C492.952,249.979,491.41,245.435,492.287,241.289z M825.554,454.546
		c-4.087-0.101-4.942,4.261-8.238,4.426c-6.446,0.322-6.519,5.822-7.788,10.065c-0.882,2.171,0.163,4.646,2.334,5.527
		c0.131,0.053,0.264,0.1,0.398,0.14c3.662,1.295,3.682-1.229,4.028-3.595c0.772-2.211,2.23-4.118,4.161-5.443
		C823.691,462.881,825.556,458.819,825.554,454.546z M323.576,410.813c-4.369-0.448-7.427,0.971-6.866,5.531
		c-0.511,3.65,2.012,7.031,5.656,7.582c4.461-0.169,8.038-3.747,8.205-8.208C330.592,410.632,327.081,410.482,323.576,410.813z
		 M439.217,394.762c3.938-4.163,6.264-9.592,6.56-15.315c-5.894,3.566-10.94-2.591-17.51,0.458
		C432.683,384.244,436.38,389.259,439.217,394.762L439.217,394.762z M356.447,435.931c-0.001-3.115-2.526-5.641-5.642-5.64
		c-0.046,0-0.092,0-0.139,0.002c-4.879,1.611-8.084,6.28-7.833,11.413c-0.241,2.194,1.342,4.169,3.536,4.41
		c0.203,0.022,0.408,0.029,0.613,0.02C352.143,445.378,356.08,441.132,356.447,435.931z M702.265,226.316
		c-1.823-1.873-4.585-2.481-7.026-1.55c-7.71,3.501-16.348,4.403-24.614,2.568c-1.249-0.174-2.403,0.698-2.577,1.947
		c-0.061,0.44,0.008,0.888,0.197,1.289C680.205,236.452,690.617,229.779,702.265,226.316z M475.245,468.506
		c0.104,1.812,1.277,3.387,2.984,4.002c1.556,1.246,3.826,0.996,5.072-0.559c0.007-0.009,0.014-0.018,0.021-0.025
		c2.81-3.632,4.306-8.108,4.245-12.699c0.183-1.536-0.915-2.929-2.451-3.11c-0.455-0.054-0.917,0.005-1.345,0.171
		C479.997,459.622,477.074,463.812,475.245,468.506z M737.023,472.478c-1.628-0.481-2.332-0.158-2.479,0.813
		c-0.342,1.073-0.373,2.221-0.09,3.312c3.68,6.625,11.523,10.173,13.425,18.286c0.261,1.108,3.335,0.54,3.457-1.164
		c1.022-2.996,0.233-6.313-2.028-8.528c-4.053-3.053-7.525-6.808-10.253-11.087C738.499,473.43,737.807,472.874,737.023,472.478z
		 M363.879,405.068c-5.225,1.436-9.17,5.729-10.159,11.055c0.2,2.396,2.304,4.175,4.698,3.975c0.057-0.005,0.113-0.011,0.17-0.018
		c4.969-1.253,8.692-5.377,9.434-10.447c0.25-2.258-1.378-4.29-3.636-4.54C364.217,405.074,364.048,405.066,363.879,405.068
		L363.879,405.068z M357.054,556.14c0.504-2.057-0.755-4.133-2.812-4.638c-0.276-0.067-0.561-0.104-0.846-0.109
		c-5.188,0.366-9.165,4.76-9.014,9.96c-0.528,2.058,0.712,4.154,2.77,4.683c0.289,0.074,0.586,0.114,0.884,0.12
		C353.268,565.829,357.277,561.377,357.054,556.14L357.054,556.14z M509.797,470.109c4.374-1.71,7.309-5.863,7.458-10.558
		c1.085-3.097-1.508-3.856-4.077-3.526C504.877,457.094,503.918,461.115,509.797,470.109z M427.427,475.684
		c1.519-0.59,2.919-1.448,4.134-2.534c2.764-7.332,2.566-15.451-0.55-22.641c-0.423-1.543-1.763-1.201-2.813-0.792
		c-1.177,0.349-1.862,1.569-1.549,2.755C430.166,459.579,426.705,466.945,427.427,475.684L427.427,475.684z M481.214,562.96
		c5.568,0.952,6.132-4.362,8.203-7.763c0.784-1.456,0.297-3.272-1.112-4.14c-4.17-2.134-6.09,1.647-8.673,3.651
		c-0.63,0.447-1.301,0.832-2.006,1.148c-1.909,0.435-3.105,2.336-2.67,4.245c0.013,0.057,0.027,0.113,0.043,0.17
		C476.061,562.644,478.759,563.811,481.214,562.96L481.214,562.96z M633.901,243.498c-3.225-3.679-2.926-8.749-8.084-7.091
		c-5.781,0.323-10.477,4.789-11.089,10.546L633.901,243.498z M532.816,409.933c5.102-0.806,8.926-5.101,9.137-10.262
		c-0.13-1.577-1.456-2.786-3.038-2.771c-4.989,0.477-9.18,3.954-10.567,8.771C528.57,408.004,530.474,409.82,532.816,409.933z
		 M819.688,478.987c1.415,2.717,2.612,5.542,3.579,8.449c0.136,2.41,1.967,4.383,4.359,4.7c2.359,0.81,5.303,3.059,7.333,0.434
		c2.125-2.747-0.63-5.04-2.48-6.808C828.668,482.738,824.332,480.442,819.688,478.987z M378.986,572.348
		c4.23-1.452,7.289-5.154,7.917-9.583c0.849-2.204,0.215-4.703-1.582-6.236c-1.795-0.813-3.899-0.519-5.4,0.758
		c-2.002,1.187-4.504,2.646-2.92,5.231C378.832,565.507,377.274,569.109,378.986,572.348z M432.734,406.537
		c-3.887,0.807-7.426,2.804-10.124,5.715c-2.396,2.392-2.952,4.593-0.081,6.718c1.813,1.835,4.771,1.853,6.605,0.04
		c0.204-0.202,0.39-0.423,0.554-0.658C432.138,414.929,433.224,410.717,432.734,406.537z M581.769,448.84
		c-4.302,2.087-8.151,5.001-11.327,8.576l12.336,5.785C583.968,458.428,583.614,453.4,581.769,448.84z M370.043,349.919
		c-2.349-0.437-4.64,1.002-5.267,3.307c-0.492,3.808,2.194,7.293,6.002,7.786c0.181,0.023,0.363,0.04,0.546,0.049
		c2.341,0.514,4.654-0.967,5.168-3.308c0.094-0.432,0.122-0.875,0.083-1.315c0.134-3.467-2.568-6.386-6.035-6.52
		C370.375,349.913,370.209,349.913,370.043,349.919z M577.127,430.67c-10.322-0.505-12.012,1.893-11.355,14.877
		C571.77,442.753,576.015,437.192,577.127,430.67z M433.266,334.588c-2.216-1.102-4.716-1.498-7.164-1.137
		c-2.341-0.564-4.767,0.527-5.896,2.653c-0.521,1.921,0.328,3.95,2.063,4.926c1.721,2.294,4.971,2.772,7.279,1.069
		C432.139,340.528,433.588,337.601,433.266,334.588z M499.874,528.145c4.835-0.153,9.05-3.335,10.522-7.942
		c0.99-2.2,0.202-4.793-1.845-6.069c-1.135-1.652-3.301-2.236-5.111-1.379c-1.646,0.771-2.357,2.729-1.587,4.376
		c0.093,0.2,0.206,0.391,0.338,0.567C504.981,521.786,499.615,524.219,499.874,528.145z M360.478,509.771
		c-3.927-3.759-9.333-0.526-12.114-4.661c-0.775-1.153-1.966-3.079-3.475-1.31c-1.089,1.563-1.771,3.374-1.985,5.268
		c-0.385,2.099,1.442,2.474,2.956,2.581C350.813,512.188,355.821,511.544,360.478,509.771z M444.734,366.409
		c-0.891-2.669-1.835-5.126-4.842-4.367c-3.229,0.815-7.451,1.157-6.599,6.299c0.464,2.798,1.562,5.779,5.083,5.073
		C441.829,372.773,444.43,369.908,444.734,366.409z M734.056,207.598c-8.463-7.227-10.846-6.942-19.804,1.646L734.056,207.598z
		 M451.943,232.247l-1.252,1.259c3.105,3.319,6.04,6.824,9.392,9.873c1.555,1.415,4.218,2.777,5.775-0.063
		c1.24-1.958,0.659-4.55-1.298-5.791c-0.09-0.057-0.182-0.11-0.275-0.16C460.308,235.385,456.071,233.925,451.943,232.247z
		 M539.602,541.1c3.374-0.938,5.83-3.848,6.189-7.332c0.316-2.274-1.271-4.375-3.545-4.69c-0.181-0.025-0.362-0.038-0.545-0.04
		c-3.282,1.024-5.449,4.149-5.256,7.583c-0.479,1.947,0.71,3.914,2.657,4.394C539.267,541.054,539.434,541.083,539.602,541.1
		L539.602,541.1z M737.083,218.997c-4.319-1.422-9.052-0.816-12.874,1.649c-1.145,2.497-0.35,5.455,1.893,7.04
		C730.74,226.304,734.672,223.193,737.083,218.997z M228.357,391.324c4.54-1.334,7.84-2.107,10.983-3.294
		c1.649-0.722,2.402-2.645,1.68-4.294c-0.084-0.192-0.187-0.376-0.306-0.548c-0.552-1.55-2.256-2.359-3.806-1.807
		c-0.324,0.115-0.625,0.286-0.892,0.504C232.369,383.957,229.634,387.327,228.357,391.324z M183.779,608.229
		c6.296-3.148,12.206-2.876,14.33-9.199C190.766,596.134,186.469,598.527,183.779,608.229z M429.315,621.473
		c-3.852,1.09-7.411,3.023-10.421,5.662c-1.515,1.254-1.969,3.384-1.098,5.146c1.54,2.188,3.557,0.767,4.961-0.232
		C426.202,629.479,428.545,625.7,429.315,621.473L429.315,621.473z M508.479,385.107c-1.986,0.974-3.34,2.892-3.593,5.089
		c-0.067,2.769-4.132,6.63-0.056,8.023c4.136,1.414,3.867-3.716,4.914-6.34C511.235,389.653,510.672,386.645,508.479,385.107
		L508.479,385.107z M563.218,478.066c3.856-0.515,6.979-3.387,7.815-7.187c-0.185-1.187-1.172-2.084-2.37-2.153
		c-3.81-0.573-7.362,2.051-7.936,5.86c-0.017,0.114-0.031,0.229-0.043,0.346c-0.262,1.445,0.698,2.831,2.144,3.093
		C562.957,478.049,563.088,478.063,563.218,478.066z M491.236,221.332c-1.686,10.411-1.686,10.411,7.305,10.059
		C497.63,227.16,494.979,223.508,491.236,221.332z M523.04,639.376c6.321-0.099,12.405-2.424,17.182-6.565
		C532.17,630.385,527.94,635.971,523.04,639.376z M399.602,439.925c-6.7,1.437-3.727,6.305-3.628,10.124
		c0.059,2.271,0.934,3.925,3.449,3.131c1.883-0.403,3.082-2.256,2.679-4.139c-0.024-0.113-0.054-0.226-0.09-0.336
		C401.251,445.813,400.432,442.936,399.602,439.925z M783.643,402.878c-0.442-3.477-3.291-6.149-6.789-6.37
		c-2.511-0.242-2.947,1.927-2.884,3.84c0.155,4.663,4.055,4.845,7.237,5.529C783.24,406.314,783.366,404.412,783.643,402.878
		L783.643,402.878z M638.777,231.708c6.424,1.052,12.484-3.303,13.536-9.728c0.043-0.262,0.077-0.526,0.103-0.791
		C646.839,223.105,642.047,226.801,638.777,231.708z M183.743,623.593c8.371,5.432,8.467,5.397,12.553-3.608L183.743,623.593z
		 M526.247,525.1c-0.008-1.23-1.012-2.222-2.242-2.215c-0.072,0.001-0.145,0.005-0.217,0.013c-3.55,0.723-6.052,3.911-5.91,7.531
		c-0.286,2.145,1.569,2.593,3.055,2.39C525.592,532.181,524.856,527.778,526.247,525.1z M369.926,616.189
		c3.631-1.356,5.474-5.398,4.117-9.028c-0.018-0.046-0.035-0.093-0.054-0.139c-0.716-0.819-1.801-1.217-2.877-1.054
		C368.09,608.532,367.57,613.001,369.926,616.189z M725.727,496.156c2.014,1.406,3.492,3.452,4.194,5.806
		c-0.245,0.958,0.333,1.933,1.29,2.178c0.561,0.144,1.156,0.008,1.599-0.365c1.896-0.517,3.191-2.264,3.137-4.228
		c-1.872-3.753-6.432-5.279-10.185-3.407C725.75,496.145,725.738,496.15,725.727,496.156z M627.806,220.734
		c4.274-1.265,7.977-3.978,10.47-7.673C635.35,215.668,628.57,211.362,627.806,220.734z M580.237,187.254
		c4.569,0.013,8.284-3.682,8.297-8.251c0.001-0.199-0.006-0.398-0.02-0.596C584.297,179.541,581.089,182.97,580.237,187.254z
		 M514.682,270.838c-0.222-3.036,3.676-5.222,1.601-8.84C511.004,264.009,510.198,266.852,514.682,270.838z M538.12,232.593
		c-1.651,0.688-3.038,1.208-4.373,1.836c-1.779,0.837-3.952,2.448-2.901,4.105c1.166,1.686,3.477,2.108,5.163,0.942
		c0.285-0.197,0.54-0.433,0.76-0.7C538.709,237.348,539.287,234.701,538.12,232.593L538.12,232.593z M322.792,489.973
		c-1.557-0.456-3.188,0.437-3.644,1.992c-0.112,0.384-0.145,0.787-0.096,1.184c-0.426,1.486,0.434,3.036,1.92,3.462
		c0.084,0.023,0.17,0.044,0.256,0.06c1.997-0.095,3.656-1.574,3.979-3.548C325.939,491.106,324.335,490.478,322.792,489.973z
		 M804.451,483.04c0.105-1.556-1.065-2.903-2.62-3.018c-1.553-0.288-3.047,0.73-3.346,2.281c-0.29,1.236,0.477,2.475,1.713,2.766
		c0.271,0.063,0.552,0.077,0.827,0.041c1.489,0.392,3.014-0.499,3.405-1.988C804.438,483.095,804.445,483.067,804.451,483.04z
		 M453.889,551.193c-2.762,2.337-3.783,6.142-2.563,9.547c3.299-1.757,4.548-5.855,2.79-9.153
		C454.044,551.453,453.969,551.322,453.889,551.193L453.889,551.193z M409.807,487.756c1.611,0.307,3.201-0.622,3.727-2.176
		c0.854-1.896-0.471-2.851-2.191-2.779c-1.593-0.104-3.02,0.979-3.347,2.542C407.883,486.495,408.669,487.542,409.807,487.756
		L409.807,487.756z M206.183,578.229c-1.478,0.266-2.645,1.404-2.948,2.875c-0.118,0.946,0.554,1.809,1.5,1.926
		c0.219,0.027,0.441,0.012,0.655-0.045c1.531-0.02,2.756-1.275,2.737-2.807c0-0.017,0-0.033-0.001-0.049
		C208.143,578.965,207.786,577.883,206.183,578.229z M712.243,428.806c-0.58,0.25-1.146,0.534-1.69,0.853
		c-1.659,1.506-2.852,3.455-3.438,5.617c0.57,0.342,1.209,0.556,1.87,0.627c1.276-1.28,2.427-2.681,3.435-4.181
		C712.557,430.747,712.497,429.756,712.243,428.806L712.243,428.806z M542.994,428.723c1.627,0.15,3.066-1.047,3.217-2.673
		c0.008-0.085,0.012-0.171,0.013-0.257c0.105-1.194-0.778-2.248-1.973-2.354h-0.001c-1.34-0.195-2.585,0.731-2.781,2.071
		c-0.035,0.244-0.034,0.492,0.004,0.735C541.76,427.188,542.283,428.041,542.994,428.723L542.994,428.723z M764.708,546.687
		c3.026,1.059,6.339-0.536,7.397-3.562c0.104-0.299,0.185-0.605,0.239-0.917c0.011-0.71-0.339-1.378-0.929-1.774
		c-2.736,0.091-5.152,1.812-6.132,4.368C765.021,545.406,764.828,546.038,764.708,546.687z M464.118,352.344
		c0.759-0.633,1.389-1.406,1.855-2.277c0.282-0.819-0.152-1.711-0.971-1.994c-0.27-0.093-0.56-0.11-0.838-0.051
		c-1.17,0.063-2.089,1.026-2.095,2.198c-0.244,0.922,0.306,1.866,1.228,2.11C463.565,352.399,463.847,352.405,464.118,352.344z
		 M718.499,231.295c-0.589-0.381-1.254-0.629-1.949-0.724c-1.388,0.215-3.759,0.844-2.845,2.218
		C715.458,233.278,717.334,232.693,718.499,231.295L718.499,231.295z M503.188,551.62c0.031-1.505-0.839-2.883-2.212-3.5
		c-1.665-0.517-1.672,1.083-1.767,2.041c-0.532,1.36,0.139,2.896,1.499,3.429c0.112,0.044,0.228,0.08,0.345,0.108
		c0.944,0.229,1.896-0.352,2.124-1.297C503.24,552.145,503.244,551.878,503.188,551.62z"/>
	<path d="M594.338,587.25c-2.229,4.023-6.108,6.868-10.615,7.786c2.003-4.934,5.291-9.241,9.522-12.474
		c1.429-1.344,2.318,0.775,2.23,2.439L594.338,587.25z"/>
	<path d="M733.389,398.299c-1.95,0.367-4.328,1.811-5.083-1.405c0.009-1.118,0.6-2.151,1.559-2.727
		c3.054-0.951,2.994,1.954,3.918,3.613L733.389,398.299z"/>
	<path d="M674.015,580.04c-0.844,7.121-7.3,12.21-14.421,11.366c-0.04-0.005-0.081-0.01-0.121-0.015L674.015,580.04z"/>
	<path d="M767.764,321.943c0.169-5.194,2.093-10.178,5.458-14.138C774.113,313.161,772.022,318.577,767.764,321.943z"/>
	<path d="M690.981,586.189c2.493-3.547,4.8-7.222,6.912-11.009C701.34,582.795,695.688,584.232,690.981,586.189z"/>
	<path d="M789.884,347.123c1.179-4.389,2.674-8.687,4.476-12.859C796.362,339.064,794.435,344.603,789.884,347.123z"/>
	<path d="M792.819,377.468c1.659-3.745,5.48-6.057,9.568-5.789C800.501,378.511,800.501,378.511,792.819,377.468z"/>
	<path d="M684.411,441.395c-0.099-4.408,1.856-8.613,5.293-11.377C689.213,434.281,687.356,438.272,684.411,441.395z"/>
	<path d="M717.169,569.326l-7.75,7.066c-1.501-3.141,1.136-4.237,2.257-5.633c0.876-1.849,3.084-2.637,4.933-1.762
		C716.805,569.091,716.992,569.201,717.169,569.326z"/>
	<path d="M811.517,383.186c0.043,2.242-1.606,4.159-3.83,4.451c-1.218,0.464-2.581-0.146-3.045-1.363
		c-0.086-0.223-0.137-0.458-0.151-0.697c-0.293-2.286,1.321-4.378,3.607-4.672c0.046-0.006,0.092-0.011,0.138-0.015
		c1.274-0.458,2.679,0.203,3.137,1.478C811.467,382.63,811.516,382.907,811.517,383.186z"/>
	<path d="M702.778,586.697c-1.885,0.17-3.068-0.313-2.933-1.515c0.131-2.73,2.277-4.935,5.004-5.139
		c1.137-0.154,2.521,0.387,2.373,1.49C706.744,583.913,705.06,585.871,702.778,586.697z"/>
	<path d="M769.612,384.492c1.843-4.028,2.171-7.478,6.982-6.324C776.041,381.654,773.136,384.285,769.612,384.492z"/>
	<path d="M797.401,359.43c0.207,2.005-0.972,3.896-2.864,4.591c-1.532,0.517-1.833-0.877-1.805-2.005
		c-0.498-1.961,0.603-3.974,2.522-4.614c0.981-0.194,1.935,0.443,2.129,1.425C797.423,359.026,797.429,359.23,797.401,359.43z"/>
	<path d="M712.037,398.337c-0.639,0.09-1.229-0.354-1.319-0.993c-0.02-0.137-0.015-0.275,0.015-0.41
		c0.299-1.595,1.726-2.728,3.347-2.658c1.223-0.129,2.612,0.313,1.874,1.868C715.14,397.528,713.643,398.366,712.037,398.337z"/>
	<path d="M743.402,283.211c-0.254,0.925-0.77,1.757-1.483,2.397c-1.403,0.272-2.761-0.644-3.033-2.047
		c-0.028-0.142-0.044-0.286-0.047-0.431c-0.031-1.073,0.456-2.094,1.311-2.744c1.624-0.165,3.075,1.018,3.24,2.643
		C743.396,283.089,743.4,283.15,743.402,283.211z"/>
	<path d="M735.88,551.427c-1.02,0.109-1.935-0.629-2.044-1.648c-0.011-0.103-0.014-0.206-0.007-0.31
		c-0.013-1.194,0.944-2.173,2.14-2.187c0.34-0.003,0.676,0.073,0.981,0.224c1.054,0.146,1.789,1.119,1.644,2.172
		c-0.015,0.102-0.036,0.202-0.066,0.3C738.146,551.067,737.004,551.692,735.88,551.427z"/>
	<path d="M698.701,463.572c-0.233,1.185,0.192,3.035-2.047,2.811c-1.142-0.071-2.032-1.014-2.038-2.157
		c-0.084-1.511,1.064-2.808,2.573-2.906C698.533,461.154,698.691,462.382,698.701,463.572z"/>
	<path d="M463.076,598.377c-9.09,7.616-16.63,17.08-28.457,10.056c-6.822-5.018-9.553-13.91-6.723-21.892
		c5.238-6.913,13.705-10.593,22.333-9.705c8.454,2.021,14.382,9.626,14.278,18.317c7.076-13.962,14.807-18.039,26.904-14.188
		c5.902,1.375,9.573,7.273,8.198,13.176c-0.19,0.819-0.475,1.613-0.847,2.367c-5.324,8.24-14.097,13.622-23.855,14.634
		C467.042,610.894,464.992,608.917,463.076,598.377z M450.873,587.29c-1.916,1.27-3.16,3.333-3.389,5.62
		c-1.166,2.257-2.758,3.713-5.388,1.641c-1.242-0.979-2.091-3.886-4.287-1.164c-0.464,0.602-0.635,1.378-0.467,2.119
		c0.423,2.328,2.169,4.195,4.464,4.773c5.66-0.466,9.87-5.432,9.404-11.091C451.158,588.547,451.045,587.911,450.873,587.29z
		 M487.104,592.751c-0.024-1.204-0.903-2.22-2.092-2.415c-2.402-0.082-4.441,1.747-4.619,4.145
		c-0.259,1.269-0.173,3.436,2.151,2.915C484.825,596.843,486.594,595.041,487.104,592.751z"/>
	<path d="M484.141,519.135c1.283,7.407-3.682,14.451-11.088,15.734c-1.112,0.192-2.245,0.246-3.371,0.159
		c-9.185,0.063-17.405-5.688-20.494-14.338c-0.781-5.529,2.029-10.946,7-13.491c6.096-4.54,13.987-5.91,21.257-3.691
		c0.361,2.919-1.711,5.578-4.63,5.94c-0.271,0.033-0.544,0.046-0.817,0.038c-2.2,0.574-4.804-0.255-6.925,0.451
		c-3.846,1.194-6.651,4.51-7.19,8.501c-0.229,3.271,1.833,6.265,4.969,7.218c3.408,2.331,8.024,1.724,10.714-1.409
		C475.433,520.252,479.85,518.116,484.141,519.135z"/>
	<path d="M347.11,395.167c-14.534-0.822-20.504-10.179-16.196-20.927c1.831-4.71,5.043-8.757,9.215-11.61
		c7.234-5.005,9.456-4.475,14.318,3.271c1.032,2.069,2.296,4.016,3.768,5.8c3.734,3.672,3.948,9.624,0.486,13.554
		C356.827,390.351,352.437,394.106,347.11,395.167z M344.027,386.005c4.307-0.909,7.403-4.688,7.446-9.09
		c0.056-2.42-1.861-4.427-4.281-4.482c-0.43-0.01-0.858,0.043-1.272,0.159c-4.329,0.845-7.254,4.911-6.677,9.283
		C339.479,384.308,341.586,386.126,344.027,386.005z"/>
	<path d="M594.022,559.401c-2.154-6.073,2.88-11.703-4.932-13.548c-2.781-0.657-0.553-4.887,1.229-6.859
		c2.637-2.232,4.643-5.117,5.819-8.366c2.407-9.219,2.683-9.147,13.021-5.648c-5.016,4.83-6.792,12.122-4.559,18.718
		c-1.768,0.203-3.384-1.019-3.67-2.774c-0.418-1.572-2.021-2.518-3.599-2.123c-1.75,0.592-2.688,2.489-2.097,4.238
		c0.062,0.184,0.14,0.361,0.232,0.532c0.636,1.241,2.684,2.129,1.664,3.74C595.24,550.304,596.235,554.009,594.022,559.401z"/>
	<path d="M584.199,536.844c1.95-9.722,3.414-18.508,13-22.258C596.509,519.849,593.646,524.889,584.199,536.844z"/>
	<path d="M606.086,482.028c1.717,4.205,0.631,9.034-2.721,12.099C601.315,489.956,602.448,484.921,606.086,482.028z"/>
	<path d="M580.374,541.635l2.615,7.883C576.934,548.141,576.934,548.141,580.374,541.635z"/>
	<path d="M608.687,507.363c4.294,5.716,1.233,7.299-2.561,8.773C604.019,512.533,607.353,510.665,608.687,507.363z"/>
	<path d="M544.696,615.363c0.024-0.613,0.138-1.221,0.335-1.803c0.961-1.991,2.839-3.384,5.023-3.726
		c0.563,0.422,0.901,1.079,0.916,1.783c-0.313,1.856-1.733,3.331-3.578,3.713C546.499,615.453,545.593,615.464,544.696,615.363z"/>
	<path d="M793.813,511.084c-2.981-0.324-3.67,3.765-6.711,3.465c-2.089-2.605,0.401-4.206,1.542-5.884
		c0.915-1.346,1.982-3.701,4.289-2.172c1.806,1.198-1.657,3.426,0.575,4.825L793.813,511.084z"/>
	<path d="M760.869,503.478c3.465-1.463,7.146-2.347,10.897-2.615c-2.402,3.613-7.214,4.71-10.945,2.496L760.869,503.478z"/>
	<path d="M236.553,545.089c0.084-7.25-6.997-7.377-10.768-10.782c-2.436-2.2-8.548-3.487-6.71-6.544
		c3.012-5.009,5.236,1.754,8.074,2.699c6.197,2.063,12.181,4.77,18.341,7.249c-0.351,4.274-4.101,7.455-8.375,7.104
		c-0.326-0.026-0.65-0.074-0.971-0.142L236.553,545.089z"/>
	<path d="M773.175,442.553c-1.203,1.258-3.16,1.412-4.546,0.358c-0.599-1.908,1.609-0.895,2.585-1.063
		C771.912,441.933,772.583,442.174,773.175,442.553z"/>
	<path d="M753.056,476.814c-3.446-1.248-6.154-3.972-7.382-7.426C749.516,469.94,752.526,472.97,753.056,476.814z"/>
</g>
</svg>
