<svg xmlns="http://www.w3.org/2000/svg" data-name="Слой 1" viewBox="0 0 100 125" x="0px" y="0px"><title>gtanate</title><g><path d="M14.676,67.42714a8.27574,8.27574,0,0,1-2.48477-1.83694,5.95929,5.95929,0,0,1-2.05619-4.252,16.03609,16.03609,0,0,0-.28621-2.67932,1.56526,1.56526,0,0,1,1.33109-2.13132,4.6806,4.6806,0,0,1,3.08022-.09638,3.26071,3.26071,0,0,1,1.40435.90521c0.97679,1.15038,2.08444,2.2036,2.42294,3.76146a0.46947,0.46947,0,0,0,.485.43391c0.39225-.03145.3679-0.34411,0.35526-0.6402a17.382,17.382,0,0,1,.53593-4.66782,1.19662,1.19662,0,0,0-.22791-1.28459,4.37728,4.37728,0,0,1-.928-2.05389c-0.25966-1.1102-.56451-2.20992-0.818-3.32142a0.63049,0.63049,0,0,0-.80079-0.578A5.51128,5.51128,0,0,0,14.493,49.54a3.14327,3.14327,0,0,1-.9097.40436,0.74308,0.74308,0,0,1-.93478-0.899c0.02492-.18543.13786-0.35776,0.17383-0.5432,0.1664-.85764.02-1.03262-0.83335-1.01a4.12854,4.12854,0,0,0-.42456.0628A0.81213,0.81213,0,0,1,10.657,47.3203a0.89476,0.89476,0,0,1,.18753-1.04281c0.45838-.78774,1.13166-1.406,1.65136-2.14194,0.59757-.84625.56859-0.95912-0.13786-1.68958a7.01251,7.01251,0,0,0-2.0766-1.49642,1.2094,1.2094,0,0,1-.93343-1.408,1.44833,1.44833,0,0,1,1.567-.9668c0.71393-.02582,1.43069.00922,2.14326-0.03263,0.54156-.03181.89728-0.18576,0.60605-0.8978-0.3033-.7415-0.46881-1.53013-0.81915-2.27112a0.98378,0.98378,0,0,1,.95178-1.54873,0.89923,0.89923,0,0,1,.77918.4989,19.48711,19.48711,0,0,0,3.15349,2.68812,4.3,4.3,0,0,0,.64084-1.6934,27.72191,27.72191,0,0,1,3.65621-6.28645,15.80165,15.80165,0,0,1,4.65363-3.91449,22.652,22.652,0,0,1,4.98148-2.06081,11.88839,11.88839,0,0,1,4.92674-.57326,31.75017,31.75017,0,0,1,4.68777.4538,10.01351,10.01351,0,0,1,3.55083,1.38079,0.89332,0.89332,0,0,0,1.02221.30851c1.14273-.69221,1.80675.10688,2.40591,0.82835,0.75024,0.90339,1.38649,1.90145,2.09864,2.89592,1.017-.75818,1.96325-1.46884,2.91567-2.17117a1.76885,1.76885,0,0,1,1.23564-.62028c0.364,0.03468.403-.27352,0.52493-0.54361a12.47524,12.47524,0,0,1,4.21452-5.28719c1.28871-.89691,1.91856-0.74415,2.50553.68618a8.12248,8.12248,0,0,1,.46114,5.84773c-0.17779.53017-.25429,1.0943-0.41868,1.8273a1.32121,1.32121,0,0,0,.93534-1.36987c-0.11145-1.56607.57142-2.975,0.88024-4.45268A4.08236,4.08236,0,0,1,66.13117,19.2,29.60534,29.60534,0,0,1,69.758,17.913a0.92966,0.92966,0,0,1,1.33707,1.03832,0.51273,0.51273,0,0,0-.02008.13978c0.67159,1.657-.31157,2.899-1.04238,4.20916-0.22909.41068-.41221,0.847-0.70915,1.46452a4.42221,4.42221,0,0,0,1.44948-.81665c3.1509-2.36428,6.3606-1.488,8.59188,1.42855a2.01958,2.01958,0,0,1-.38615,2.47226A5.19122,5.19122,0,0,1,77.39944,29.06a9.44794,9.44794,0,0,0-1.35346.79485,2.38309,2.38309,0,0,0-.36035.42726c2.01407,0.48269,3.40825,1.96073,5.21494,2.68871a2.18034,2.18034,0,0,1,.70711.47368,26.18532,26.18532,0,0,1,6.00383,8.07171,17.50055,17.50055,0,0,1,1.42161,4.02237,22.46885,22.46885,0,0,1,.60121,5.7979c-0.05462.51825-.2705,1.23568,0.7455,1.10941a0.50727,0.50727,0,0,1,.47351.45681,3.20386,3.20386,0,0,1-.81009,2.4156,1.7604,1.7604,0,0,0-.09639,2.95812A14.78751,14.78751,0,0,0,91.90671,59.912a1.45342,1.45342,0,0,1,.60957,1.0966c0.16892,0.79277-.17871,1.13145-1.01446,1.01292-0.80152-.11367-1.60241-0.23425-2.39994-0.37261-0.57427-.09962-0.808.1295-0.74284,0.6931,0.104,0.89992.22167,1.7984,0.314,2.6995,0.101,0.98535-.44869,1.42251-1.3591,1.03385a9.508,9.508,0,0,1-1.609-.92174,0.66548,0.66548,0,0,0-1.06975.201c-1.58214,2.138-3.78857,3.55579-5.88,5.11641a26.88588,26.88588,0,0,1-5.83833,2.93132,13.76848,13.76848,0,0,1-3.59072.50228,13.87868,13.87868,0,0,1-1.71263.02348c-0.31552.00689-.66854,0.19719-0.84318-0.26792a0.45,0.45,0,0,0-.61415-0.198c-1.32914.63664-2.48463-.21213-3.70061-0.42414-1.092-.1904-1.127-0.28775-1.69345.64952A25.90175,25.90175,0,0,1,58.701,76.40122a11.82036,11.82036,0,0,1-4.45257,3.22416,24.77688,24.77688,0,0,1-5.28417,2.102,22.34793,22.34793,0,0,1-7.74384.18407,94.48564,94.48564,0,0,1-10.07464-2.01381,5.54053,5.54053,0,0,1-1.32405-.5194,4.43727,4.43727,0,0,0-1.57131-.60137A2.81031,2.81031,0,0,1,26.213,77.33769a11.19041,11.19041,0,0,0-2.32767-2.64764,2.45931,2.45931,0,0,1-.68176-0.88164,2.137,2.137,0,0,0-1.15837-1.24676A9.45431,9.45431,0,0,0,20.527,74.56727c-1.464,1.76918-3.50142,2.53991-5.50551,3.4248a14.906,14.906,0,0,1-3.46985.756,1.25871,1.25871,0,0,1-.81835-0.15527,7.15454,7.15454,0,0,1-3.16681-3.57022,1.19751,1.19751,0,0,1,.435-1.52663,17.79583,17.79583,0,0,0,2.62555-2.99687,9.17184,9.17184,0,0,1,2.23951-1.96469C13.41563,68.181,13.98017,67.85161,14.676,67.42714Zm64.69937-9.24844c0.42282-.10261.725,0.48,1.3279,0.15178A5.00039,5.00039,0,0,0,78.973,56.80831c-0.56306-.28025-0.41826.242-0.39877,0.54478-0.27068.06026-.37576-0.44258-0.70707-0.21886,1.1806,1.8419,1.1806,1.8419,2.00155,1.706A1.39264,1.39264,0,0,0,79.37537,58.17869ZM13.54365,75.1c-0.19494-.46392-0.265-0.46274-0.82121.01919,0.306,0.21559.56626-.25338,0.86461-0.0544a4.44079,4.44079,0,0,1-.36334.41742,16.49882,16.49882,0,0,0-1.45411.87539,0.4723,0.4723,0,0,0-.22641.48257c0.11671,0.311.38895,0.20348,0.60131,0.15775a3.01386,3.01386,0,0,0,1.81168-1.69426C14.06823,75.12253,13.70022,75.154,13.54365,75.1Zm3.64872-1.64039c0.03951,0.30207-.41357.54371-0.11806,0.87528,0.33443-.00027.37873-0.536,0.77639-0.39959a1.03158,1.03158,0,0,1-.87395.97974c-1.04026-.18766-1.14824.6672-1.75017,1.18966A9.7738,9.7738,0,0,0,19.46747,73.691a0.92584,0.92584,0,0,0-.11928-1.34594,3.13376,3.13376,0,0,0-.84621.78221,1.82928,1.82928,0,0,1-.69973.85339c-0.22307-.51.46-0.88641,0.22809-1.41216-0.66141-.002-0.44561.77351-0.88362,0.94629-0.1171-.42906-0.395-0.55322-0.71456-0.25259a13.90732,13.90732,0,0,0-2.63552,3.348,3.78944,3.78944,0,0,0,1.903-1.76864A3.2283,3.2283,0,0,1,17.19237,73.45959Zm-4.69659-1.37416a0.9357,0.9357,0,0,1,1.04715.11212,1.59793,1.59793,0,0,0,1.93631.01847c0.76479-.34695.332-0.63973-0.08341-0.90845a1.42809,1.42809,0,0,0,1.00077-.08218c0.11727,0.43276.38139,0.48462,0.7353,0.27566a0.73652,0.73652,0,0,0,.34963-0.83332c-0.05436-.3583-0.55008-0.366-0.55354-0.74645a0.82083,0.82083,0,0,1,.41429.04157,1.48626,1.48626,0,0,0,1.77829.32459,1.2,1.2,0,0,1,1.18795.1316c-0.23977.6038-1.047,0.24732-1.1904,0.89169a1.33613,1.33613,0,0,1,.423.0591c0.66919,0.35281.96364-.081,1.14744-0.58646a2.00086,2.00086,0,0,0-.8429-1.6733,0.34842,0.34842,0,0,0-.27041.03418c-0.48194.737-1.0387,0.17507-1.4518-.00273A2.4492,2.4492,0,0,0,15.556,68.9898c0.31811,0.534.83048,0.21819,1.27938,0.26466,0.761,0.07879.29042,0.43957,0.14728,0.71959a4.717,4.717,0,0,0-2.96066-.22492,3.21061,3.21061,0,0,1,1.226.76352,1.73584,1.73584,0,0,0-1.11276.12227L14.79839,71.112c-0.80748.09258-1.50581,0.5964-2.33189,0.61895,0.01569,0.12784.03138,0.25568,0.03885,0.373-1.05723-.2647-1.05723-0.2647-1.40248.43806A1.83233,1.83233,0,0,0,12.49578,72.08544ZM30.74671,59.56018c0.209-.46737.39774-0.94549,0.63657-1.39709a0.39544,0.39544,0,0,0-.00553-0.505,3.3031,3.3031,0,0,1-.81733-1.75394,0.269,0.269,0,0,0-.31325-0.21094c-0.25536.02707-.26029,0.24132-0.25023,0.42152,0.02638,0.47226.561,0.792,0.43113,1.30521a3.59362,3.59362,0,0,0,.324,2.14383c-0.001.45808-.75178,0.92634-0.046,1.35787a1.602,1.602,0,0,0,1.4952.16225,0.90924,0.90924,0,0,0,.69415-0.93636,0.93485,0.93485,0,0,0-1.07765-.8779A10.45255,10.45255,0,0,0,30.74671,59.56018ZM59.39252,28.99142c1.28092-1.11829,1.29562-2.74491,1.69749-4.21734,0.14111-.51708-0.58777-0.16342-0.54924-0.57068,0.03669-.38828.71918-0.37932,0.54158-0.8884a1.10889,1.10889,0,0,0-.192-0.24129,4.6379,4.6379,0,0,0-1.549,2.137c-0.26134.834-1.41191,1.17368-1.28206,2.468,0.40738-.44328.69159-0.75275,0.97609-1.06194,0.16378-.178.36234-0.377,0.58015-0.14017,0.23348,0.25391.70447,0.46593,0.42456,0.92445a4.224,4.224,0,0,1-.68535.70077c-0.0266-.32047.0167-0.701-0.51793-0.54813a3.23325,3.23325,0,0,0-2.09114,2.39188A2.26767,2.26767,0,0,0,58.275,29.057a2.02292,2.02292,0,0,1,1.12406-.99935q-0.05292.42-.1058,0.8401a3.0684,3.0684,0,0,0-1.08217,1.13758C59.15154,30.23657,59.15238,29.47932,59.39252,28.99142Zm-6.05477,5.74619a2.34929,2.34929,0,0,0-1.17591.98636,1.16455,1.16455,0,0,1-1.48626.41316A20.37207,20.37207,0,0,0,52.968,33.12834a1.33856,1.33856,0,0,0-.734-2.16351c-0.42466-.08322-0.87447-0.00293-0.93833-0.60285-0.01438-.13511-0.10151-0.17843-0.20317-0.0924a0.645,0.645,0,0,0-.257.30313c-0.052.42208,0.257,0.51779,0.58755,0.65352,1.01569,0.417,1.14039.90252,0.5196,1.82335a1.50224,1.50224,0,0,0-.53784.80951,1.91679,1.91679,0,0,1-1.08911,1.69373,2.127,2.127,0,0,0-.73946,2.25641,1.14211,1.14211,0,0,0,1.72215.29459,23.33545,23.33545,0,0,0,1.996-3.40915,31.6968,31.6968,0,0,0,3.45458-2.94882c-1.40217-.10768-2.14284.64344-2.97122,1.168C53.05186,33.37359,53.49767,34.13218,53.33775,34.73762ZM16.37607,66.53913L16.326,66.48886c0.39932,0.51414,1.10553.48925,1.5644,0.8828a2.20683,2.20683,0,0,0,1.2145.32134c0.5409,0.097.69317-.19961,0.58879-0.6634-0.10741-.4772-0.0569-1.12176-0.878-0.97853a0.72908,0.72908,0,0,1-.63648-0.24229c-1.89794-1.76452-4.325-2.95016-5.73087-5.25941a0.58986,0.58986,0,0,0-.86146-0.32,2.1401,2.1401,0,0,0,.40372,1.55736c0.10777,0.14042.308,0.20134,0.22307,0.45029-0.333.9758,0.31425,1.58449,0.84857,2.24A5.95305,5.95305,0,0,0,16.37607,66.53913Zm67.99127-4.12564a0.90966,0.90966,0,0,0,1.03757-.11738c0.56259-.72184.66517,0.08847,0.59834,0.23256-0.49978,1.07758.39307,1.11267,0.99968,1.52507,0.09742-1.35367-.45261-2.52884-0.26328-3.75391a0.27671,0.27671,0,0,0-.25114-0.28826,0.21433,0.21433,0,0,0-.27993.22586,0.97621,0.97621,0,0,1-.53292,1.05758,1.12249,1.12249,0,0,1-1.16211-.31654,1.33447,1.33447,0,0,0-.67377-0.13151A1.2786,1.2786,0,0,1,82.40205,59.534a2.18821,2.18821,0,0,0-1.87854.65689c-0.47106.35618-.41906,1.23561-1.17792,1.51119a1.04091,1.04091,0,0,0,.76657.02843,0.28054,0.28054,0,0,0,.26737-0.2709L80.37124,61.442a1.32585,1.32585,0,0,0,.35442.59085c0.96762,0.29851,1.26838,1.17214,1.73224,1.90258a1.10984,1.10984,0,0,0,.85264.79326c0.053-.92417,1.24837-1.276,1.0904-2.34058ZM47.48208,49.40308c0.44383,0.24679.53021,1.104,1.3074,0.76881a0.3019,0.3019,0,0,0,.11725-0.22986,1.25657,1.25657,0,0,0-1.46022-.50512c-0.09331-1.2603-.20876-2.433,1.01007-3.41122,1.1148-.89474,2.025-0.85342,2.52384.47331,0.41429,1.10193.647,1.29589,1.70105,1.0419a4.23418,4.23418,0,0,1,2.49325.01713c1.03865,0.3517,1.37311-.07415,1.062-1.121-0.06746-.227-0.09562-0.46759-0.17976-0.68743a11.21285,11.21285,0,0,0-1.60057-2.84943,0.54353,0.54353,0,0,0-.86681-0.1183C53.27313,43.099,53.6318,43.24,53.83318,43.424a1.59391,1.59391,0,0,1,.32451,2.1272,2.19193,2.19193,0,0,1-2.32421.58668c-0.8868-.3924-0.72881-1.12876-0.56239-1.81921a4.95491,4.95491,0,0,0-1.37444.1039,2.6762,2.6762,0,0,0-2.89552,2.012,4.536,4.536,0,0,1-1.06907,1.457c-0.93854,1.02841-2.30469,1.688-2.69224,3.22117a4.12264,4.12264,0,0,1-.50709,1.90469,0.2647,0.2647,0,0,0,.0068.38259c0.90615,0.766.62417,2.05013,1.29752,2.93288a1.61245,1.61245,0,0,0,.88208-1.3284c0.38907-1.17153,1.13964-1.33937,2.20092-.71292,0.54489,0.32163.83771,0.89975,1.37483,1.19178a2.35862,2.35862,0,0,1,3.85722.325c0.81829-.47189,1.73721-0.88643,2.44047.02241,0.62448,0.807,1.11925.53031,1.89784,0.09252A3.22724,3.22724,0,0,1,54.75258,53.633c-0.40019.97193-1.05228,0.77614-1.58018,0.94711-0.73525.23812-1.02029-.381-1.42345-0.72944-0.41376-.35761-0.654-0.09214-0.9916.10227-0.891.51307-1.76554,0.53326-2.16626-.16062-0.57053-.98791-1.215-0.84071-2.01754-0.49474a1.67618,1.67618,0,0,1-.69172.15941,2.00337,2.00337,0,0,1-1.7129-.85693,1.66356,1.66356,0,0,1-.18436-1.76676A3.29112,3.29112,0,0,1,47.48208,49.40308Zm12.7078,22.00828a8.09155,8.09155,0,0,0,1.54765-5.02008,1.12072,1.12072,0,0,1,.02482-0.82173c0.99912-.876.92638-2.1215,0.916-3.19341-0.02832-2.9234.32147-5.932-1.21927-8.65523a0.98641,0.98641,0,0,1-.11318-0.54682,4.57829,4.57829,0,0,0-.94978-2.62832,0.88148,0.88148,0,0,0-1.01357-.47571,0.39467,0.39467,0,0,0-.0247.62162A3.82746,3.82746,0,0,1,59.96,53.226a10.83978,10.83978,0,0,1,.08406,1.42447,25.35217,25.35217,0,0,1-.60656,6.34877,48.44853,48.44853,0,0,1-2.01364,5.45384,32.31271,32.31271,0,0,1-7.15575,10.145c-0.43386.4211-.858,0.85225-1.42723,1.41869,1.24358,0.05945,1.94058-.77877,2.85822-0.89,0.97544-.11827,1.60549-1.068,2.62364-1.1401,0.0146,0.35692-.37845.494-0.2167,0.92483,0.89822-.5849,2.01086-0.94362,2.47076-1.69949,0.604-.99276,1.742-0.82674,2.34668-1.57621a2.85258,2.85258,0,0,0,.7547-1.19714,1.31113,1.31113,0,0,1,.37284-0.75284ZM77.025,48.62042l0.04789-.06306a2.62619,2.62619,0,0,1,1.05161-.871,0.93219,0.93219,0,0,0,1.01516-.498c0.45056-.60992.48253,0.75012,1.07123,0.66382a1.092,1.092,0,0,1,.28421-0.004,12.68059,12.68059,0,0,1,1.66788.21947c0.64509,0.16326.59671-.91606,1.24649-0.94932,0.04759-.00244.09539-0.00031,0.18052-0.00031a1.4989,1.4989,0,0,1-.02358,1.17854,2.11027,2.11027,0,0,0,.79729,1.76264,0.48326,0.48326,0,0,0,.38326-0.06957c0.18728-.14283.32932-0.34319,0.50492-0.50349a1.15684,1.15684,0,0,1,1.25733-.4643,1.16932,1.16932,0,0,1,.43174,1.13562,7.10479,7.10479,0,0,1,.01053.71319,2.5997,2.5997,0,0,0,.8071,1.62066c0.68176-3.42687-.108-8.07811-2.11713-10.7555-0.36418.087-.24171,0.72128-0.73957,0.684a2.47783,2.47783,0,0,1,.487-1.45247c0.23365-.65846-0.40827-0.92606-0.68476-1.333-0.74508.34951-.90132,1.23105-1.742,1.38993a1.79635,1.79635,0,0,1,.94253-1.54815c0.414-.38459.49336-0.82053,0.163-1.096a26.73925,26.73925,0,0,1-2.54754-2.8176,3.93346,3.93346,0,0,0-1.74968-1.36394A4.38194,4.38194,0,0,1,77.99407,33.05c-1.01747-.6409-2.1948-0.9264-3.19956-1.54183a4.482,4.482,0,0,0-1.989-.64743,28.23455,28.23455,0,0,0-7.81338.28378c-2.55041.487-5.01781,1.41028-7.51886,2.15158a2.81134,2.81134,0,0,0-.64215.30741,11.31032,11.31032,0,0,0-3.86679,4.177,1.9727,1.9727,0,0,0-.34683,1.20386c0.06636,0.43282.55732,0.15161,0.84437,0.23954a0.75608,0.75608,0,0,1,.36874.40437,1.84131,1.84131,0,0,0,.6047.77029c1.26546,0.9282,2.58327,1.80131,3.75037,2.84212A9.81085,9.81085,0,0,1,60.607,46.12292a12.33753,12.33753,0,0,1,1.735,4.91463,2.71125,2.71125,0,0,0,.25289.961c1.16152,2.579,1.12981,5.36059,1.36953,8.0907a24.52867,24.52867,0,0,1-.94861,8.03883,4.34522,4.34522,0,0,0-.28255,2.0892,1.09771,1.09771,0,0,1-.73408,1.59c1.89593,1.38809,2.96412,1.30792,4.88576-.29141,0.58048,0.606-.47365.76753-0.40813,1.2982,0.54221,0,1.02.028,1.49353-.0048,2.123-.147,4.2685-0.14387,6.25382-1.11638a1.35667,1.35667,0,0,0,.966-1.065,4.36747,4.36747,0,0,1,1.47447-2.16534c0.19585,0.59849-.59192.75232-0.22877,1.39383a37.24235,37.24235,0,0,1,4.743-4.46415,0.38591,0.38591,0,0,0,.087-0.60671A1.87186,1.87186,0,0,0,79.82457,63.576c-0.67057-.04173-1.27673-0.68-1.94469-0.47743a1.20142,1.20142,0,0,1-1.44939-.52386,13.81772,13.81772,0,0,0-2.25441-2.30028c-1.05409-.74917-0.95741-1.86235-1.23547-2.86394a0.46576,0.46576,0,0,1,.49871-0.54115c0.11248,0.49636-.14205,1.18277.65436,1.36553a0.4512,0.4512,0,0,1,.21747.47977c0.10221,0.85553.69322,0.82284,1.36428,0.85161a5.83436,5.83436,0,0,0-.19419-1.505,5.748,5.748,0,0,1,.69833-4.09168,33.237,33.237,0,0,1,2.05852-2.915,1.09547,1.09547,0,0,1,.95438-0.1034,13.18652,13.18652,0,0,1,3.2291,1.08859c0.76624,0.43626,1.0973.18776,1.17259-.71942a2.21814,2.21814,0,0,0-.05334-0.48028c-1.09525-.02659-2.21906.30111-3.0511-0.75251a2.06173,2.06173,0,0,0-.74485-0.37519c-0.73847-.34916-1.14845-0.17757-1.23874.586a1.65125,1.65125,0,0,1-.23578.79866c-0.47853-.24456-0.78893.22785-1.1713,0.27728A2.91,2.91,0,0,0,74.60772,53.24a4.96738,4.96738,0,0,0-.91874,2.40985c0.011,0.235-.046.48135-0.57208,0.47777,0.42144-1.04127-1.57039-1.97715.03986-3.10075a1.48262,1.48262,0,0,1-.12516-0.36232c0.21424-.64.105-1.33874,0.8524-1.85092A20.74394,20.74394,0,0,1,77.025,48.62042Zm-57.04387,4.9237a1.06714,1.06714,0,0,0,.58788-0.75206,7.29461,7.29461,0,0,1,1.0775-2.31467c1.31122-1.27628,1.78086-3.01422,2.78058-4.44918a23.65117,23.65117,0,0,1,6.1012-6.29614A13.64237,13.64237,0,0,1,36.705,37.274c1.97778-.20578,3.92067-0.80988,5.929-0.63735a0.78983,0.78983,0,0,0,.99372-0.981c-0.00714-.23838.02417-0.47919,0.00262-0.71567a11.61043,11.61043,0,0,0-2.76206-6.58066c-0.71522-.84608-0.61824-1.28226.40817-1.63568a4.7073,4.7073,0,0,1,3.67027.60435c0.35376,0.16708.61385,0.28371,0.82482-.1159a0.50761,0.50761,0,0,0-.18861-0.74218c-0.91291-.50749-1.80988-1.35273-2.76-1.422-2.21136-.16128-4.29547-1.17774-6.55951-0.88255a14.4778,14.4778,0,0,0-1.84208.02264c-1.32671.36339-2.69449,0.51427-4.005,0.99819a18.29405,18.29405,0,0,0-6.72579,4.40893A15.56122,15.56122,0,0,0,19.95231,35.602c-0.85686,2.54685-1.81236,5.08027-1.65462,7.87789,0.06181,1.09564.313,2.166,0.30393,3.25879-0.01836,2.211.73831,4.27851,1.15816,6.40811A1.63381,1.63381,0,0,0,19.98115,53.54412ZM39.97074,78.53279a13.17417,13.17417,0,0,0,4.02054-.96143,8.353,8.353,0,0,1,2.5473-.83094A5.83541,5.83541,0,0,0,49.8,75.09391a52.92923,52.92923,0,0,0,3.41215-4.21351,28.59613,28.59613,0,0,0,4.70236-9.21259,7.082,7.082,0,0,0,.35412-2.65357c-1.66686,1.225-2.05878,1.24823-3.50035-.01247-0.60832-.532-0.76344-0.00852-1.08731.17582a0.67388,0.67388,0,0,0,.43106.47353c1.47947,0.86343,1.55393,1.07333.99678,2.57434a1.43992,1.43992,0,0,1-.49055.68578c-0.59423.43721-.61048,0.83587,0.08986,1.13713a1.20343,1.20343,0,0,1,.65074,1.54687,1.80132,1.80132,0,0,1-2.789,1.34086c-0.64309-.34969-1.1736-0.63315-1.61679.22091,1.105,0.58834,1.33742.97818,1.18693,1.96069a2.65466,2.65466,0,0,1-2.22341,1.70609c-1.70219.25174-1.61451-1.26207-2.14271-2.18437a1.80516,1.80516,0,0,1-2.91921.54088,0.86792,0.86792,0,0,0-1.33661-.04784,1.64926,1.64926,0,0,1-2.12571-.15977,1.3687,1.3687,0,0,1,.07134-1.923,1.67541,1.67541,0,0,1,2.59805-.39869,1.069,1.069,0,0,0,1.49707.12468,2.2077,2.2077,0,0,1,2.80248-.2597,0.56678,0.56678,0,0,0-.11239-0.834c-1.23713-.98192-1.23526-0.983-0.71232-2.44333a0.44969,0.44969,0,0,0,.04271-0.27331c-0.31986-.80269.4092-1.01055,0.82027-1.2776a1.47074,1.47074,0,0,1,1.72166.23341,0.87015,0.87015,0,0,0,.712.45242,1.39416,1.39416,0,0,0,.47615-1.24129,1.47223,1.47223,0,0,1,.89871-1.95337L51.50852,57.5665c-0.18115.12061-.30228,0.192-0.41336,0.27666-1.05355.80259-1.12677,0.78941-2.07545-.07083a2.40257,2.40257,0,0,0-1.0808-.65833,3.34835,3.34835,0,0,1-2.49215,1.40559c-0.63489.0502-1.05763-.7158-1.58763-0.35244-0.43578.29877-.46816,1.02659-1.0662,1.26362a2.71,2.71,0,0,0-1.2471,1.28106c-0.4935.79835-1.01773,1.749-2.302,1.39021,0.22218-.3397.93375-0.17893,0.687-0.898-0.15906-.46348.376-0.71621,0.62429-1.03946,0.16738-.218.45667-0.33824,0.6482-0.54269,0.27662-.29525.15134-0.54421-0.20185-0.6217a2.2747,2.2747,0,0,0-2.47686,1.96237c0.011,0.36581.09429,0.73689-.2863,0.79921-1.10786.18139-.98364,0.97947-0.93908,1.72872a2.63759,2.63759,0,0,1-2.105,2.89882,0.66453,0.66453,0,0,1-.59877-0.13735c-1.27242-.7889-1.29364-0.7568-2.38425.2883-0.28526.27334-.42643,0.50852-0.12021,0.83593a0.43682,0.43682,0,0,0,.72965.04222,2.42281,2.42281,0,0,1,1.13815-.54164,0.99418,0.99418,0,0,1,1.41014.528,2.67982,2.67982,0,0,1-1.55632,3.99875,1.057,1.057,0,0,1-1.23905-.4343,1.75348,1.75348,0,0,1-.1373-1.80762,0.6735,0.6735,0,0,0-.8276.292c-1.06977,1.10642-1.21733,1.14-2.5349.51147-0.78686-.37537-0.80232-0.36213-0.92407.8016,0.64675,0.05442,1.43391-.24279,1.89663.32964a8.64467,8.64467,0,0,0,3.52776,2.16583c0.73215,0.33354,1.05934.17771,1.33908-.4054,0.80217-1.67205,1.57362-3.35886,2.35356-5.04153a0.548,0.548,0,0,0,.06062-0.275c-0.20873-1.78833,1.122-2.8201,2.00512-4.06676a0.88166,0.88166,0,0,1,.99636-0.40513,0.939,0.939,0,0,1,.6432,1.011,3.96016,3.96016,0,0,1-.40922,1.78785,5.46051,5.46051,0,0,0-.777,2.575,9.49684,9.49684,0,0,1-2.10446,5.31365A2.723,2.723,0,0,1,35.03672,75.101a0.78025,0.78025,0,0,0-.99.53628,2.28168,2.28168,0,0,1-.61651.77676,1.3069,1.3069,0,0,1-2.2517-.58564,2.49651,2.49651,0,0,1,.08229-1.63445c-0.747.39475-1.29773,0.74761-1.89383,0.98786-1.22578.494-2.844-.51783-2.45843-1.601,0.27736-.77916.02387-1.52394,0.42954-2.267a3.5869,3.5869,0,0,1-3.06014-.598,1.24042,1.24042,0,0,1-.5757-1.59169,1.37313,1.37313,0,0,0-.09912-1.40436,2.75719,2.75719,0,0,1-2.35389-.14922,2.94755,2.94755,0,0,0,.42254,2.01569c0.96292,1.93292,2.51636,3.44667,3.73456,5.19957a3.21066,3.21066,0,0,0,.62008.58912c1.46663,1.21141,2.95912,2.36356,4.963,2.54594a3.19532,3.19532,0,0,1,1.07776.3705c1.84844,0.91528,3.77094.4792,5.69692,0.50978a1.32236,1.32236,0,0,0-.63024-0.885,1.293,1.293,0,0,1,.15-1.801c0.9781-.65549,1.81091-1.734,3.27378-1.22007,0.30627,0.1076.76238-.1678,0.99417,0.27019a1.09671,1.09671,0,0,1-.22113,1.3106C40.81833,77.08863,40.48482,77.82934,39.97074,78.53279ZM25.1494,62.31259c-0.49389.05956-.913,0.13526-1.33474,0.15555-0.79211.03811-2.06361-1.00977-1.94714-1.67792,0.289-1.65756.73261-2.88774,2.82047-2.53046,0.09362,0.016.18352,0.05535,0.27729,0.06869a0.51228,0.51228,0,0,0,.62851-0.57623,0.40039,0.40039,0,0,0-.504-0.49515,2.4878,2.4878,0,0,1-1.38037-.28265A2.37654,2.37654,0,0,1,22.26521,54.577,2.44689,2.44689,0,0,1,24.136,52.80934a3.12878,3.12878,0,0,0,1.29778-.24475,7.33153,7.33153,0,0,1-.18478-2.5103,2.5862,2.5862,0,0,1,1.13759-1.89895,0.95571,0.95571,0,0,1,1.55809.33689c0.09048,0.15777.06706,0.37859,0.14977,0.54345,0.323,0.644,1.42478,1.12417,1.69091.70859,0.63494-.99136,2.47316-1.01419,2.19263-2.72718a0.38436,0.38436,0,0,1,.17424-0.21578,2.85233,2.85233,0,0,0,.78828-1.5838,3.29078,3.29078,0,0,1-1.78926-1.41337A1.69062,1.69062,0,0,1,31.503,41.835a0.96807,0.96807,0,0,1,1.49287-.21318c0.40182,0.32545.6546,0.21007,0.91849-.19295a7.22939,7.22939,0,0,1,1.62609-1.5971,0.63346,0.63346,0,0,1,.90357-0.0631c0.86828,1.01233,1.72682.64774,2.61486,0.0768a1.17477,1.17477,0,0,1,.25371-0.128,1.8683,1.8683,0,0,1,2.06891,1.09226,1.41392,1.41392,0,0,1-.65611,1.81484A2.28221,2.28221,0,0,0,39.684,43.12a0.7749,0.7749,0,0,0,1.125.08789,1.11726,1.11726,0,0,1,1.61525.36115c0.16094,0.19447.19278,0.5639,0.65336,0.49232,0.92551-1.28581.10986-2.69158,0.18837-4.04341,0.36273-.03357.23557,0.40933,0.37474,0.44859,1.08444,0.30587,1.08977,1.19909.99662,2.00077a9.48039,9.48039,0,0,1-.81894,3.281A17.799,17.799,0,0,1,42.12424,49.032c-0.76486.94447-.81417,2.29305-1.81285,3.09813-0.17962.14482-.0124,0.35733,0.05943,0.52566,0.28033,0.65693.56843,1.31055,0.85186,1.96616a6.84457,6.84457,0,0,1,.33312,2.94106c-0.00635.32315-.0004,0.76384,0.504,0.64172,0.35307-.08549.89588-0.06508,0.75456-0.75684a24.28567,24.28567,0,0,0-.34874-2.8187,6.1798,6.1798,0,0,1,1.89505-6.93153,9.143,9.143,0,0,0,1.923-2.44236c0.7325-1.34261,1.73187-2.44406,3.55532-1.87993a1.01429,1.01429,0,0,0,1.12362-.40794,3.0811,3.0811,0,0,1,2.06006-.98869c0.07225-.46466-0.58753-0.54142-0.42447-1.10187a1.182,1.182,0,0,1,1.151.97246c0.07739,0.20816.09564,0.627,0.34053,0.42822,0.53833-.437,1.0354.33314,1.6464-0.04816-1.05324-.96444-2.321-1.4916-3.1871-2.51824a0.90324,0.90324,0,0,0-1.1891-.1221,0.97278,0.97278,0,0,1-1.2681-.11738c-1.42324-.93994-3.1045-1.041-4.7163-1.34771-0.49719-.09462-1.22261.33978-1.24161-0.66047-0.00238-.12547-0.30128-0.14878-0.297-0.03914,0.02426,0.62531-.97119.2105-0.8765,0.90047a0.20965,0.20965,0,0,1-.37109.18025c-0.81-.839-1.77039-0.481-2.68744-0.35467-3.81815.52588-7.48925,1.39954-10.417,4.18459A24.3599,24.3599,0,0,0,25.49,46.78212c-0.90636,1.43328-1.4103,3.11909-2.72585,4.30149a0.84591,0.84591,0,0,0-.19419.3779c-0.68953,2.25867-1.94361,4.33958-2.24687,6.71195a17.85293,17.85293,0,0,0,.36645,6.60331c0.03213,0.12935.083,0.17251,0.1693,0.13192a1.89387,1.89387,0,0,0,.83256-0.964,1.17385,1.17385,0,0,1,1.69787-.41945,3.30248,3.30248,0,0,0,1.78989.339C24.7933,63.36035,25.2998,62.95283,25.1494,62.31259ZM13.0741,58.78652a4.82463,4.82463,0,0,1,.86114,1.21913c0.18956,0.64092.88631-.1777,1.05959,0.49854,0.13747,0.53649.22293-.74142,0.54041-0.08562a0.77647,0.77647,0,0,1,.09976.87989c-0.57226.22486-.80476-0.69172-1.44206-0.35874a3.85717,3.85717,0,0,0,2.124,2.20411c0.60649,0.14969.54929,0.797,1.0599,0.80277a1.01223,1.01223,0,0,1,.9812,1.01378,0.513,0.513,0,0,0,.24647.32137c0.23571,0.09774.4495,0.50564,0.72044,0.22063a0.49443,0.49443,0,0,0-.133-0.8328A5.42876,5.42876,0,0,1,17.76619,62.802c-0.85095-1.16673-.95213-2.93013-2.619-3.46861-0.20668-.06677-0.13738-0.20637-0.12077-0.3399,0.1515-1.21778-.99606-0.908-1.54791-1.23993a1.51716,1.51716,0,0,0-1.70488.35472,0.87771,0.87771,0,0,0-.17182,1.17217c0.34034,0.49925.53105-.09551,0.79155-0.17859A5.95876,5.95876,0,0,0,13.0741,58.78652Zm66.99024-5.11123c-0.61948-.56618-1.20631-0.2527-1.76907-0.26311-0.343-.00635-1.38364,2.23586-1.31237,2.67687a0.56575,0.56575,0,0,0,.237.32611,0.2041,0.2041,0,0,0,.3165-0.14888,0.78648,0.78648,0,0,1,1.03965-.668c0.33509,0.03149.38373-.18281,0.3098-0.458-0.10573-.39358.083-0.37327,0.35577-0.25788,0.198,0.08373.49868,0.01315,0.48269-.13946-0.08878-.84738.37387-0.47162,0.67312-0.30734a2.89377,2.89377,0,0,0,2.47844.06941,0.56042,0.56042,0,0,0,.47675-0.60016,0.48322,0.48322,0,0,0-.50256-0.55945,2.884,2.884,0,0,1-1.70938-.55323A2.47928,2.47928,0,0,0,78.954,52.6638C79.21582,53.19225,80.0228,52.62265,80.06434,53.67528ZM27.75565,68.53315c1.01026-.50834.96871-1.45648,1.40294-2.11156,0.28752-.43376-0.5799-0.7718-0.68248-1.28872a0.70316,0.70316,0,0,0-.21875-0.4984,6.82405,6.82405,0,0,1-1.94494.19375c-0.31164-.053-0.56012-0.04125-0.60647.36114a7.28047,7.28047,0,0,1-.89894,2.28645C26.152,67.15547,27.31434,66.89505,27.75565,68.53315ZM16.44544,41.34292a0.64469,0.64469,0,0,1-.64965.44294c-0.171.01739-.4854,0.18434-0.37571,0.23044,0.8826,0.37088.13415,0.45493-.083,0.64567a0.44465,0.44465,0,0,0,.07725.80466,0.83193,0.83193,0,0,0,1.34984-.471,4.57735,4.57735,0,0,0,.10452-0.98463,8.165,8.165,0,0,1,.33856-3.0207c0.08-.17326.00282-0.521-0.09982-0.49141-0.8297.239-.71379-1.09665-1.59076-0.86344,0.36329,0.683.72486,1.35293-.12163,1.96136-0.2422.17409,0.29621,0.427,0.16373,0.83291a2.00068,2.00068,0,0,0-2.51177-.30807C14.38393,40.35,15.09085,41.426,16.44544,41.34292ZM55.9841,42.7584C55.938,43.533,56.787,43.61918,56.841,44.24506c0.11613,1.34755,1.0071,2.40746,1.4398,3.64467,0.15652,0.44754.9569,0.58027,0.79841,1.30478a0.18947,0.18947,0,0,0,.3005.14653,0.518,0.518,0,0,0,.21551-0.31651c-0.36762-.58033.24233-1.43372-0.66721-1.94871a1.83977,1.83977,0,0,1-.613-1.62725c0.12532-.97888-0.83293-1.55041-1.18854-2.37282A2.3174,2.3174,0,0,0,55.9841,42.7584ZM26.39039,53.169c0.85726,1.07228.45418,2.12993,0.00675,3.18838,1.04678,0.03181,1.671-.62136,2.57472-0.86715-1.304-1.53539-.31823-2.77763.56741-4.32086a4.10332,4.10332,0,0,0-1.43569,1.33576C27.72812,53.07305,27.06969,52.88957,26.39039,53.169Zm9.10406,6.11364a1.07672,1.07672,0,0,0-.92294.86951c-0.04442.621-.43641,1.3178,0.23379,1.85151,0.91232,0.72647,1.30223.63909,1.91786-.50278,0.17392-.32258.77025-0.59222,0.30931-1.08116A4.69816,4.69816,0,0,0,35.49446,59.28269Zm-2.73981-2.223a3.28468,3.28468,0,0,0,1.60725-.49021,1.62008,1.62008,0,0,0,.31454-1.809,0.822,0.822,0,0,0-1.34072.03271,11.1779,11.1779,0,0,1-1.12064.59319,1.02553,1.02553,0,0,0-.53992,1.199A0.91355,0.91355,0,0,0,32.75465,57.0597ZM39.18835,65.541c-0.478.74756-1.44516,1.06425-1.1409,1.95211a1.96318,1.96318,0,0,1-.1447,1.622c-0.61576,1.276-.77,2.75625-1.72411,3.88359a0.33209,0.33209,0,0,0,.10942.45559A12.17267,12.17267,0,0,0,39.18835,65.541Zm5.3963-29.15135c2.48731,0.98572,2.66452.97282,3.99352-1.3703a2.23944,2.23944,0,0,0,.29266-0.64912c0.092-.48483.41576-1.162-0.216-1.37188-0.67736-.225-0.56082.73686-0.99848,1.01394-0.21775.13785,0.1207,0.40281,0.16481,0.61464,0.16282,0.7814-.00771.89506-0.78655,1.10864A8.67406,8.67406,0,0,0,44.58465,36.3896ZM36.39759,63.14539a3.56649,3.56649,0,0,1-2.57369-.88984c-0.555-.46814-1.27966-0.30557-2.26282.02355,1.01887,0.27113,1.61072.78025,2.29283,0.95235,0.64037,0.16158.85588,0.29987,0.778,1-0.07542.678,0.39533,0.89446,0.99849,0.52992A1.53376,1.53376,0,0,0,36.39759,63.14539Zm21.72628-39.1178c-0.5095.13215-.58532,0.71707-0.94859,0.93455-0.90378.54107-.93654,0.50269-1.03967,0.84117A31.7648,31.7648,0,0,1,54.70015,29.582a0.24031,0.24031,0,0,0,.07208.35746,0.57538,0.57538,0,0,0,.394.03843,0.54771,0.54771,0,0,0,.37422-0.39072,13.083,13.083,0,0,1,2.308-4.64181A0.85205,0.85205,0,0,0,58.12387,24.02758ZM41.59009,80.17405a1.704,1.704,0,0,0,1.72432.09163,2.74544,2.74544,0,0,1,1.76211-.36832,1.402,1.402,0,0,0,1.34018-.45256,2.29205,2.29205,0,0,1,.86775-0.45041,3.39533,3.39533,0,0,0,1.57236-1.484A65.35471,65.35471,0,0,1,41.59009,80.17405ZM30.90874,65.47591a2.63979,2.63979,0,0,0,1.30655-.50855,0.89492,0.89492,0,0,0,.41091-0.84675,0.945,0.945,0,0,0-.78469-0.73331,1.66071,1.66071,0,0,0-1.60682.67294,0.84978,0.84978,0,0,0-.33235,1.00259A1.17864,1.17864,0,0,0,30.90874,65.47591ZM36.8945,49.59346a1.52609,1.52609,0,0,1,.58564-1.64809,1.04939,1.04939,0,0,0-.30727-1.59433c-0.22233-.15176-0.54982-0.21017-0.5739.07155-0.09856,1.1535-.9983,1.85606-1.58737,2.809Zm48.24185,7.98289a0.693,0.693,0,0,0-.7838-0.5434c-1.05766.42693-1.21448-.26869-1.253-1.02476-0.33954.07544-.56748,0.12706-0.79587,0.17664-0.76211.16544-.88652,0.35279-0.52658,1.01133a13.59511,13.59511,0,0,0,.96608,1.361A7.57057,7.57057,0,0,1,85.13635,57.57635ZM25.75769,54.39885a0.79757,0.79757,0,0,0-.72166-0.84171,1.98129,1.98129,0,0,0-1.5364,1.45867,0.94641,0.94641,0,0,0,.83291,1.1103C24.92442,56.20082,25.6984,55.28836,25.75769,54.39885Zm2.47177,6.51733a0.56369,0.56369,0,0,0-.25969.09256c-0.2074.84495-1.17173,1.14245-1.40949,1.96417a0.47322,0.47322,0,0,0,.05373.52338,0.57093,0.57093,0,0,0,.65215.13769,3.727,3.727,0,0,0,1.67113-1.49344A0.85531,0.85531,0,0,0,28.22946,60.91618ZM13.71908,45.37049a7.00454,7.00454,0,0,1,1.86055-.09618,2.31209,2.31209,0,0,0,.83085-0.09812,0.65636,0.65636,0,0,0,.47174-0.76293,0.46337,0.46337,0,0,0-.64264-0.49534c-0.53522.09119-.97458-0.41-1.47564-0.31715-0.72241.13391-.2273,1.06432-0.77922,1.3643A1.7224,1.7224,0,0,0,13.71908,45.37049Zm74.58337,9.311a6.2042,6.2042,0,0,1-2.213-.17932c-0.28742-.07178-0.7731-0.19752-0.887.174-0.184.60009-.96346,0.52509-1.16131,1.10728,0.62448,0.216,1.19206.656,1.786,0.22338C86.58684,55.45336,87.50138,55.25355,88.30245,54.68151ZM47.26732,50.87518a0.68845,0.68845,0,0,0-.66228-0.70037,1.59513,1.59513,0,0,0-1.49673,1.729,0.59289,0.59289,0,0,0,.49728.437A1.64544,1.64544,0,0,0,47.26732,50.87518ZM36.507,56.07882a0.45241,0.45241,0,0,0-.57726.06493,0.4884,0.4884,0,0,0,.11129.63337,2.18318,2.18318,0,0,1,.38508.58206c0.26074,0.70741.68631,0.64977,1.22216,0.32991a2.43708,2.43708,0,0,0,.81116-0.77012,0.52865,0.52865,0,0,0,.15892-0.62525,0.44775,0.44775,0,0,0-.509-0.14272A3.18033,3.18033,0,0,1,36.507,56.07882ZM36.3775,51.22528c-0.00992-.80046-0.24719-1.08281-0.85971-1.08-0.60687.00275-.79977,0.23827-0.64542,0.99762a0.82543,0.82543,0,0,1-.1681.76818c-0.20133.2542-.48834,0.54345-0.13352,0.8504a0.69906,0.69906,0,0,0,.91314-0.10564A1.50692,1.50692,0,0,0,36.3775,51.22528Zm-0.75571-8.4382c0.38452-.15073.87431-0.32827,1.35043-0.53706a0.37229,0.37229,0,0,0,.272-0.44357,1.69623,1.69623,0,0,0-.88656-1.04206,0.80683,0.80683,0,0,0-.97247.39739c-0.15627.23763-.31947,0.47236-0.4545,0.722C34.66621,42.37274,34.948,42.8064,35.62178,42.78708Zm-0.40166,3.83206a0.77791,0.77791,0,0,0-.38728-0.59933,0.53821,0.53821,0,0,0-.76068.16251,6.38551,6.38551,0,0,1-1.00552,1.345c-0.22741.23574-.0574,0.43191,0.04586,0.63466a0.42807,0.42807,0,0,0,.46783.24615A2.87892,2.87892,0,0,0,35.22012,46.61913ZM32.134,54.126c0.99132-.16966,1.22681-0.416,1.11923-1.30277a1.69573,1.69573,0,0,1,.39893-1.30249c0.15-.19609.37422-0.4324,0.03685-0.6833C32.717,51.73784,31.47164,52.48285,32.134,54.126ZM23.79437,64.75361c-0.32533,0-.51648-0.00707-0.707.00131a1.09037,1.09037,0,0,0-.92983.94784,0.59319,0.59319,0,0,0,.22489.75719,1.10312,1.10312,0,0,0,1.0921-.0869,2.78919,2.78919,0,0,0,1.06856-.93037,0.348,0.348,0,0,0-.18791-0.56748A2.57472,2.57472,0,0,0,23.79437,64.75361Zm15.28876-20.1564c-0.00731-.66846-0.07923-0.78732-0.48974-0.80939a1.35952,1.35952,0,0,0-1.32918,1.50575,0.65706,0.65706,0,0,0,.71379.82624A1.32572,1.32572,0,0,0,39.08313,44.59721ZM27.72748,58.75012A1.22184,1.22184,0,0,0,29.175,57.225c-0.05695-.21772-0.24135-0.556-0.456-0.34252-0.45744.4548-1.08675,0.2943-1.5679,0.57518a0.597,0.597,0,0,0,.02641,1.11351A2.77432,2.77432,0,0,0,27.72748,58.75012ZM44.2757,30.73655a17.65961,17.65961,0,0,1,.47395,3.07832,0.47019,0.47019,0,0,0,.2829.57625,1.04137,1.04137,0,0,0,.86062-0.39792c0.17237-.15163.36829-0.41963,0.15864-0.60743C45.22673,32.6467,45.142,31.44136,44.2757,30.73655ZM25.28722,60.04579a0.79908,0.79908,0,0,0-.62678-0.91113c-0.67556-.01053-0.80985.79913-1.311,1.13143-0.29784.19746-.0477,0.59938,0.19554,0.84477a0.5237,0.5237,0,0,0,.23961.13313A1.382,1.382,0,0,0,25.28722,60.04579ZM57.28568,51.529c0.17983,0.04405.31573,0.0858,0.45473,0.10934a0.316,0.316,0,0,0,.438-0.21094,0.56359,0.56359,0,0,0-.12908-0.52368,0.55653,0.55653,0,0,0-.7668-0.11294,1.20384,1.20384,0,0,1-1.72568-.35979,5.11,5.11,0,0,0-.399-0.39894,0.35875,0.35875,0,0,0-.5943.06807,0.33208,0.33208,0,0,0,.09189.49521c0.78172,0.2259,1.08614,1.64987,2.25908.90273A0.6826,0.6826,0,0,1,57.28568,51.529ZM38.28574,49.5758a2.25972,2.25972,0,0,0,1.55708-1.832,0.54629,0.54629,0,0,0-.78076-0.38812,2.11278,2.11278,0,0,0-1.1253,1.82575A0.45106,0.45106,0,0,0,38.28574,49.5758ZM71.01086,26.37686a1.76318,1.76318,0,0,0,.9908-0.79382,0.44854,0.44854,0,0,1,.669-0.28487c0.97563,0.54837,1.45987-.22217,2.17775-0.65146-0.6004-.3998-1,0.088-1.47367.04239C71.9215,24.54918,71.47956,24.88528,71.01086,26.37686ZM36.66516,43.7207c-1.84627-.01843-1.84627-0.01843-2.18515,1.13045C35.90979,45.48013,35.90979,45.48013,36.66516,43.7207ZM33.5193,59.6229a4.23206,4.23206,0,0,1,1.47118-.7691,0.43346,0.43346,0,0,0,.40376-0.59992,0.69539,0.69539,0,0,0-.63886-0.47012C33.59052,57.72088,33.24421,58.18112,33.5193,59.6229Zm-8.85994,9.26341a4.502,4.502,0,0,0,.7384.96069,0.74956,0.74956,0,0,0,1.11636-.232,0.8218,0.8218,0,0,0-.026-1.05067,0.59044,0.59044,0,0,0-.97551-0.05646A2.56549,2.56549,0,0,1,24.65936,68.88631Zm3.48982,4.92177A1.38906,1.38906,0,0,0,29.514,73.7462a0.93869,0.93869,0,0,0,.58825-0.89162,1.09654,1.09654,0,0,0-.75356-0.94343,0.51448,0.51448,0,0,0-.49107.12824C29.419,72.94457,28.12636,73.01907,28.14918,73.80808ZM53.93076,61.41946a0.87838,0.87838,0,0,0-.98725-0.95169c-0.93056.117-.11715,1.11489-0.64051,1.55158-0.14424.12035,0.159,0.50521,0.5024,0.50138A1.27725,1.27725,0,0,0,53.93076,61.41946Zm-14.9859-8.58952c-0.05691-.241-0.00932-0.81451-0.50975-0.86738-0.63895-.06751-0.45784.54767-0.54046,0.92955-0.039.18005-.19118,0.33729-0.22233,0.51695a0.69407,0.69407,0,0,0,.17467.889c0.38135,0.19119.58029-.18809,0.81822-0.392A1.20672,1.20672,0,0,0,38.94485,52.82995Zm11.84741-1.096a0.60759,0.60759,0,0,0-.56236-0.68935c-0.3929-.05358-0.67433.03793-0.54833,0.52929,0.11657,0.45452-.30048.50713-0.51143,0.73086a0.51719,0.51719,0,0,0-.00547.762,0.564,0.564,0,0,0,.773.07326A1.83293,1.83293,0,0,0,50.79226,51.73394ZM47.59358,29.45417c-0.68437.00089-1.07087,0.35732-1.56921,0.32611-0.52637-.033-0.58121.46087-0.61053,0.79053a0.54663,0.54663,0,0,0,.576.65309c0.31419-.01818.84427,0.25873,0.7186-0.464a0.21175,0.21175,0,0,1,.20033-0.28739C47.67477,30.51494,47.48664,29.96028,47.59358,29.45417ZM88.27564,55.48655c-0.499-.01232-0.60336.5201-1.00565,0.54023-0.787.03937-.7958,0.71081-0.95068,1.22867a0.51793,0.51793,0,0,0,.3335.69181c0.44707,0.15805.44937-.15,0.4917-0.43878a1.34473,1.34473,0,0,1,.508-0.66453A1.78848,1.78848,0,0,0,88.27564,55.48655ZM26.999,50.14812c-0.53324-.05469-0.90653.11853-0.83809,0.67525a0.8209,0.8209,0,0,0,.69039.92549,1.04192,1.04192,0,0,0,1.00169-1.002C27.85549,50.12592,27.42691,50.10772,26.999,50.14812Zm14.11636-1.95938a2.94146,2.94146,0,0,0,.80073-1.86948c-0.71944.43528-1.33548-.31626-2.13749,0.05583A7.1104,7.1104,0,0,1,41.11533,48.18874ZM31.0116,53.21414a0.68853,0.68853,0,0,0-.70552-0.6882,1.39543,1.39543,0,0,0-.95622,1.39321,0.48793,0.48793,0,0,0,.5065.54083A1.35569,1.35569,0,0,0,31.0116,53.21414ZM73.22565,27.62651a0.79932,0.79932,0,0,0-.85772-0.18918,4.76759,4.76759,0,0,1-3.00466.31349,0.27879,0.27879,0,0,0-.29051.39511C70.53278,28.86379,71.80384,28.04915,73.22565,27.62651ZM45.51336,57.19062a0.55269,0.55269,0,0,0,.36428.48858,0.44048,0.44048,0,0,0,.62169-0.07137,2.48044,2.48044,0,0,0,.5182-1.55013,0.34183,0.34183,0,0,0-.4634-0.35881A3.8639,3.8639,0,0,0,45.51336,57.19062Zm31.95526,0.48481c-0.19865-.05874-0.28462-0.01921-0.30247.09924a0.72849,0.72849,0,0,0-.01095.40419c0.44916,0.80875,1.40656,1.24186,1.63877,2.23219,0.03174,0.13536.407,0.066,0.42191-.142a1.00371,1.00371,0,0,0-.24752-1.04108,5.18317,5.18317,0,0,1-1.25165-1.35336A0.77016,0.77016,0,0,0,77.46861,57.67543Zm-45.5498-8.22862a1.72648,1.72648,0,0,0-1.24012,1.34951,0.53116,0.53116,0,0,0,.59419.483A1.54593,1.54593,0,0,0,32.4245,50.004,0.50206,0.50206,0,0,0,31.91881,49.44681Zm-0.83318,18.4413a0.46806,0.46806,0,0,0-.44637-0.57943,1.18412,1.18412,0,0,0-1.10032,1.21577,0.46961,0.46961,0,0,0,.44595.58633A1.17488,1.17488,0,0,0,31.08563,67.88811ZM49.731,57.38642a1.43291,1.43291,0,0,0,.91048-1.28879c0.13238-.378-0.18408-0.47079-0.49775-0.43044C49.13042,55.79756,49.01344,56.2885,49.731,57.38642Zm-10.05491.68039a1.65811,1.65811,0,0,0,.50464-0.30931,3.683,3.683,0,0,0-.06707-2.76379c-0.0516-.18831-0.21525-0.14658-0.34349-0.09667a0.27689,0.27689,0,0,0-.18905.33634C40.01051,56.101,39.58805,57.00014,39.67608,58.06681Zm6.56583,10.65385c0.67979,0.11626.74851-.53253,1.00136-0.94753a0.38109,0.38109,0,0,0-.13579-0.5053c-0.50895-.26054-0.74338.201-1.05868,0.44564a1.44187,1.44187,0,0,1-.24484.14022,0.43291,0.43291,0,0,0-.32073.53894A0.61173,0.61173,0,0,0,46.24191,68.72066Zm18.63865-38.9968c-0.39367-.44906-0.35717-1.06791-0.98688-0.86562a1.44217,1.44217,0,0,0-1.35361,1.28743ZM52.541,50.04057A1.32282,1.32282,0,0,0,53.65644,48.788a0.36874,0.36874,0,0,0-.37093-0.33832,1.48975,1.48975,0,0,0-1.2899,1.07054A0.57556,0.57556,0,0,0,52.541,50.04057Zm35.01867,8.42957a7.04355,7.04355,0,0,1,.4368,1.03134,0.61372,0.61372,0,0,0,.53224.57376c0.288,0.09891.64731,0.3734,0.89509,0.053,0.25938-.33539-0.07689-0.61525-0.30277-0.83107A4.84223,4.84223,0,0,0,87.55968,58.47014ZM33.76293,69.86661a1.45212,1.45212,0,0,0,.96647-1.16972,0.67951,0.67951,0,0,0-.19314-0.76128,0.62155,0.62155,0,0,0-.65924.0925c-0.2443.14484-.5498,0.323-0.35643,0.63859C33.74411,69.03154,33.554,69.47139,33.76293,69.86661ZM40.324,49.62608a2.33083,2.33083,0,0,0-1.23582.69769c-0.29257.29189-.36033,0.56057-0.00988,0.82a0.57015,0.57015,0,0,0,.87389-0.07552A2.06488,2.06488,0,0,0,40.324,49.62608ZM58.5167,54.79A4.44233,4.44233,0,0,0,57.134,55.83689l1.50583,0.70624A2.84089,2.84089,0,0,0,58.5167,54.79ZM32.67129,42.71479a0.56006,0.56006,0,0,0-.64288.4037,0.84853,0.84853,0,0,0,.79926.95642,0.5296,0.5296,0,0,0,.641-0.5643A0.76686,0.76686,0,0,0,32.67129,42.71479ZM57.95007,52.572c-1.26011-.06163-1.46625.231-1.3862,1.816A2.45938,2.45938,0,0,0,57.95007,52.572ZM40.38893,40.84323a1.48008,1.48008,0,0,0-.87463-0.13872,0.64414,0.64414,0,0,0-.71974.32383,0.53028,0.53028,0,0,0,.25188.60125,0.63764,0.63764,0,0,0,.88855.13057A0.95408,0.95408,0,0,0,40.38893,40.84323ZM48.5198,64.47082a1.39511,1.39511,0,0,0,1.28449-.96962,0.58857,0.58857,0,0,0-.2252-0.74091,0.49835,0.49835,0,0,0-.624-0.1682,0.40177,0.40177,0,0,0-.15241.6034C49.14322,63.69463,48.48822,63.99159,48.5198,64.47082ZM31.50361,62.228c-0.47939-.45888-1.13932-0.06432-1.47877-0.56907-0.09469-.14075-0.24-0.37577-0.42421-0.15983a1.40015,1.40015,0,0,0-.24227.643c-0.047.25625,0.176,0.302,0.36079,0.3151A3.84864,3.84864,0,0,0,31.50361,62.228ZM41.78887,44.7277c-0.10875-.3259-0.224-0.6258-0.591-0.53315-0.39423.09952-.90957,0.14131-0.80556,0.769,0.0566,0.34155.19061,0.70548,0.6205,0.61923A0.95377,0.95377,0,0,0,41.78887,44.7277ZM77.10636,25.34156c-1.033-.88217-1.32388-0.84736-2.41745.201ZM42.66889,28.35044l-0.15281.15376c0.379,0.40509.7373,0.833,1.14636,1.20514,0.1898,0.17266.51494,0.339,0.705-.00761a0.51228,0.51228,0,0,0-.192-0.7265C43.68989,28.73352,43.17276,28.55532,42.66889,28.35044Zm10.7004,37.7018a1.03983,1.03983,0,0,0,.75559-0.89513,0.5075,0.5075,0,0,0-.49919-0.57736,0.9159,0.9159,0,0,0-.64168.92562A0.44321,0.44321,0,0,0,53.36929,66.05224ZM77.476,26.733a1.83863,1.83863,0,0,0-1.57152.20135,0.69653,0.69653,0,0,0,.231.8593A2.305,2.305,0,0,0,77.476,26.733ZM15.37562,47.769c0.55421-.16289.957-0.25722,1.34064-0.40211a0.39805,0.39805,0,0,0,.1678-0.59112,0.36369,0.36369,0,0,0-.57343-0.15909A2.03949,2.03949,0,0,0,15.37562,47.769ZM9.934,74.24666c0.76859-.38439,1.49-0.3511,1.74924-1.12291C10.78684,72.7702,10.26231,73.06245,9.934,74.24666Zm29.97266,1.61673a3.28729,3.28729,0,0,0-1.27209.6911,0.518,0.518,0,0,0-.134.6283c0.18807,0.267.43414,0.09355,0.60563-.02844A2.07422,2.07422,0,0,0,39.90662,75.86339Zm9.66345-28.85317a0.79269,0.79269,0,0,0-.43855.62115c-0.00817.338-.50442,0.80937-0.00682,0.97945,0.50485,0.17256.47215-.45364,0.59989-0.774A0.60089,0.60089,0,0,0,49.57007,47.01023ZM56.2522,58.35774a1.12992,1.12992,0,0,0,.954-0.87731,0.31109,0.31109,0,0,0-.28932-0.26284,0.85149,0.85149,0,0,0-.97394.75753A0.32486,0.32486,0,0,0,56.2522,58.35774ZM47.46538,27.01807c-0.20579,1.27091-.20579,1.27091.8917,1.22791A1.87771,1.87771,0,0,0,47.46538,27.01807Zm3.88223,51.03078a3.27954,3.27954,0,0,0,2.09747-.80154C52.46211,76.95122,51.94587,77.63308,51.34761,78.04885ZM36.2795,53.70176c-0.81791.1754-.4549,0.76961-0.44287,1.23587,0.00714,0.27716.114,0.47912,0.42109,0.38213a0.42548,0.42548,0,0,0,.316-0.54623C36.48088,54.42047,36.38077,54.06933,36.2795,53.70176Zm46.88-4.52237a0.892,0.892,0,0,0-.82873-0.77754c-0.30653-.02964-0.35984.23513-0.35206,0.4687,0.019,0.5692.495,0.59144,0.88353,0.675C83.11037,49.59888,83.12578,49.36674,83.15948,49.17939ZM65.47571,28.28461a1.43886,1.43886,0,0,0,1.6649-1.284A3.2824,3.2824,0,0,0,65.47571,28.28461ZM9.92953,76.12217c1.02183,0.663,1.03363.65882,1.5324-.44053ZM51.73911,64.09908a0.272,0.272,0,0,0-.30011-0.26887,0.90212,0.90212,0,0,0-.72145.91941c-0.035.26179,0.1916,0.31653,0.37287,0.29171C51.65909,64.96343,51.56943,64.42612,51.73911,64.09908ZM32.657,75.21846a0.85651,0.85651,0,0,0,.496-1.119,0.38931,0.38931,0,0,0-.35117-0.12871A0.9196,0.9196,0,0,0,32.657,75.21846ZM76.08967,60.566a1.32718,1.32718,0,0,1,.512.70866,0.2185,0.2185,0,0,0,.35257.22118,0.51967,0.51967,0,0,0,.38291-0.516A0.927,0.927,0,0,0,76.08967,60.566ZM64.13644,26.94508a2.34377,2.34377,0,0,0,1.278-.93661C65.05726,26.32668,64.2298,25.801,64.13644,26.94508ZM58.3297,22.85814a1.01008,1.01008,0,0,0,1.01047-1.08005A1.40156,1.40156,0,0,0,58.3297,22.85814Zm-8.00238,10.2031c-0.027-.37052.44878-0.63744,0.19543-1.0791C49.87842,32.22765,49.78009,32.57471,50.32732,33.06124Zm2.86117-4.66852c-0.20164.084-.37083,0.14754-0.53382,0.22421-0.21721.10218-.48248,0.29883-0.35414,0.50106a0.453,0.453,0,0,0,.723.02957A0.58529,0.58529,0,0,0,53.18849,28.39272ZM26.90329,59.81107a0.35843,0.35843,0,0,0-.45647.38769,0.34171,0.34171,0,0,0,.2656.42992,0.51722,0.51722,0,0,0,.48577-0.43309C27.2875,59.94953,27.09169,59.87277,26.90329,59.81107Zm58.79635-.84623a0.346,0.346,0,0,0-.31988-0.36833,0.35072,0.35072,0,0,0-.40841.2785,0.28072,0.28072,0,0,0,.31012.34251A0.34033,0.34033,0,0,0,85.69964,58.96484Zm-42.79333,8.3195a1.05884,1.05884,0,0,0-.31286,1.16545A0.826,0.826,0,0,0,42.90631,67.28434Zm-5.38108-7.74379a0.40115,0.40115,0,0,0,.4549-0.26567c0.10429-.23152-0.05751-0.348-0.26748-0.33926a0.39142,0.39142,0,0,0-.40857.31037A0.27285,0.27285,0,0,0,37.52523,59.54056ZM12.66885,70.58447a0.44865,0.44865,0,0,0-.35986.351,0.21072,0.21072,0,0,0,.26309.22964,0.33842,0.33842,0,0,0,.334-0.34865C12.908,70.67448,12.86446,70.54231,12.66885,70.58447Zm61.77492-18.24a1.90232,1.90232,0,0,0-.20644.10407,1.43189,1.43189,0,0,0-.41962.68561,0.56155,0.56155,0,0,0,.22837.07653,3.43482,3.43482,0,0,0,.41922-0.51031A0.89755,0.89755,0,0,0,74.44377,52.34442Zm-20.66028-.01019a0.361,0.361,0,0,0,.39419-0.35759,0.26507,0.26507,0,0,0-.24091-0.28729,0.29932,0.29932,0,0,0-.339.34259A0.702,0.702,0,0,0,53.78349,52.33423ZM80.84818,66.73414a0.70867,0.70867,0,0,0,.93217-0.54661,0.25592,0.25592,0,0,0-.11341-0.2166,0.83112,0.83112,0,0,0-.74847.53318A1.05584,1.05584,0,0,0,80.84818,66.73414ZM44.155,43.01071a0.94057,0.94057,0,0,0,.22651-0.278,0.19142,0.19142,0,0,0-.22073-0.24969,0.27013,0.27013,0,0,0-.25571.26832A0.21066,0.21066,0,0,0,44.155,43.01071Zm31.0524-14.77644a0.58383,0.58383,0,0,0-.23794-0.08844c-0.16934.02629-.45882,0.103-0.34728,0.27078A0.56411,0.56411,0,0,0,75.20739,28.23428ZM48.9244,67.33639a0.45817,0.45817,0,0,0-.27-0.42724c-0.20325-.063-0.20411.1322-0.21564,0.2492a0.323,0.323,0,0,0,.225.43177A0.21486,0.21486,0,0,0,48.9244,67.33639Z"/><path d="M60.051,71.68583a1.91894,1.91894,0,0,1-1.29577.95036,3.63887,3.63887,0,0,1,1.16239-1.52261c0.17441-.164.283,0.09461,0.27222,0.29778Z"/><path d="M77.025,48.62042c-0.23808.04491-.52831,0.2211-0.62048-0.1715a0.39168,0.39168,0,0,1,.19022-0.33281c0.37273-.11615.36554,0.23852,0.47828,0.441Z"/><path d="M69.77719,70.80567A1.58491,1.58491,0,0,1,68.002,72.19131Z"/><path d="M81.22119,39.29973a2.80492,2.80492,0,0,1,.66622-1.72578A1.8192,1.8192,0,0,1,81.22119,39.29973Z"/><path d="M71.84827,71.55637a15.25466,15.25466,0,0,0,.84379-1.34384C73.11277,71.1419,72.42275,71.31747,71.84827,71.55637Z"/><path d="M83.92135,42.37335a11.45028,11.45028,0,0,1,.5463-1.56972A1.24585,1.24585,0,0,1,83.92135,42.37335Z"/><path d="M84.27967,46.07767a1.19227,1.19227,0,0,1,1.168-.70664C85.21744,46.20493,85.21744,46.20493,84.27967,46.07767Z"/><path d="M71.04631,53.88116a1.73247,1.73247,0,0,1,.64605-1.38879A2.42889,2.42889,0,0,1,71.04631,53.88116Z"/><path d="M75.045,69.49787l-0.946.86249c-0.1833-.38337.13861-0.51721,0.27554-0.68752A0.45208,0.45208,0,0,1,75.045,69.49787Z"/><path d="M86.56213,46.77563a0.53786,0.53786,0,0,1-.46758.54337,0.288,0.288,0,0,1-.39013-0.2515,0.50946,0.50946,0,0,1,.45707-0.57212A0.29934,0.29934,0,0,1,86.56213,46.77563Z"/><path d="M73.28832,71.61827c-0.23.02084-.37448-0.03824-0.358-0.18484a0.66092,0.66092,0,0,1,.61083-0.62728c0.13877-.01882.30777,0.04721,0.28967,0.18189A0.84774,0.84774,0,0,1,73.28832,71.61827Z"/><path d="M81.44681,46.93506c0.22492-.49165.265-0.9128,0.85238-0.772A0.91747,0.91747,0,0,1,81.44681,46.93506Z"/><path d="M84.839,43.87576a0.538,0.538,0,0,1-.34966.56044c-0.187.06315-.22375-0.10709-0.22029-0.24475a0.47148,0.47148,0,0,1,.30793-0.56317A0.22114,0.22114,0,0,1,84.839,43.87576Z"/><path d="M74.41865,48.62508a0.14256,0.14256,0,0,1-.15932-0.17129,0.39819,0.39819,0,0,1,.40857-0.32439c0.14917-.01575.31883,0.03827,0.22868,0.228A0.54269,0.54269,0,0,1,74.41865,48.62508Z"/><path d="M78.24741,34.57166a0.61006,0.61006,0,0,1-.18115.2926,0.31589,0.31589,0,0,1-.376-0.30258,0.40581,0.40581,0,0,1,.16-0.3349A0.36093,0.36093,0,0,1,78.24741,34.57166Z"/><path d="M77.32911,67.31286a0.2267,0.2267,0,0,1-.25041-0.239,0.26408,0.26408,0,0,1,.381-0.23962,0.23511,0.23511,0,0,1,.19257.30165A0.27521,0.27521,0,0,1,77.32911,67.31286Z"/><path d="M72.79072,56.58838c-0.02854.14459,0.02344,0.37048-.24993,0.3431a0.2652,0.2652,0,0,1-.24876-0.26333,0.33669,0.33669,0,0,1,.31416-0.35474C72.77019,56.29329,72.78943,56.44311,72.79072,56.58838Z"/><path d="M44.02787,73.044c-1.10963.92974-2.03,2.085-3.47384,1.22761a2.34477,2.34477,0,0,1-.82055-2.67235,3.03118,3.03118,0,0,1,2.72619-1.1847,2.27134,2.27134,0,0,1,1.743,2.236c0.86375-1.70436,1.80741-2.202,3.28421-1.732a1.33948,1.33948,0,0,1,.89735,1.89737,3.952,3.952,0,0,1-2.912,1.78633C44.512,74.572,44.26175,74.33073,44.02787,73.044Zm-1.4896-1.35329a0.93452,0.93452,0,0,0-.41371.68605c-0.14232.27547-.33667,0.45323-0.65763,0.20023-0.15173-.1196-0.25522-0.47435-0.52341-0.14208a0.31049,0.31049,0,0,0-.0569.25862,0.73671,0.73671,0,0,0,.54487.58276A1.25517,1.25517,0,0,0,42.53827,71.69071ZM46.961,72.35726a0.30492,0.30492,0,0,0-.25536-0.29474,0.54654,0.54654,0,0,0-.56383.50588c-0.03157.15489-.02118,0.41943,0.2626,0.3558A0.75165,0.75165,0,0,0,46.961,72.35726Z"/><path d="M46.59921,63.371a1.66144,1.66144,0,0,1-1.765,1.94007,2.63733,2.63733,0,0,1-2.50179-1.75025A1.59891,1.59891,0,0,1,43.187,61.914a2.91732,2.91732,0,0,1,2.59473-.4506,0.65005,0.65005,0,0,1-.66487.72974c-0.26858.07012-.58639-0.03105-0.84528,0.05512a1.26384,1.26384,0,0,0-.87785,1.03772,0.85823,0.85823,0,0,0,.60659.881,0.98835,0.98835,0,0,0,1.30786-.17193A1.13559,1.13559,0,0,1,46.59921,63.371Z"/><path d="M29.87187,48.23813c-1.7742-.10033-2.50289-1.24247-1.9771-2.55457a3.06078,3.06078,0,0,1,1.12488-1.41723c0.88309-.611,1.15433-0.5462,1.74781.39924a3.73107,3.73107,0,0,0,.45989.708,1.20417,1.20417,0,0,1,.05936,1.65454A1.90362,1.90362,0,0,1,29.87187,48.23813ZM29.4955,47.11972a1.14553,1.14553,0,0,0,.909-1.10962,0.535,0.535,0,0,0-.678-0.52773,1.0188,1.0188,0,0,0-.81493,1.13325A0.55878,0.55878,0,0,0,29.4955,47.11972Z"/><path d="M60.01246,68.28628c-0.26288-.74132.35155-1.42855-0.602-1.65379-0.33952-.0802-0.06739-0.59648.15-0.83732a2.4151,2.4151,0,0,0,.71031-1.02123c0.29392-1.1254.32752-1.11663,1.58948-.68948a2.19485,2.19485,0,0,0-.55647,2.28484,0.40687,0.40687,0,0,1-.448-0.33869,0.3634,0.3634,0,0,0-.43933-0.25915,0.40815,0.40815,0,0,0-.22748.58229c0.07757,0.15154.32756,0.25991,0.2031,0.45665C60.16111,67.17577,60.28261,67.62807,60.01246,68.28628Z"/><path d="M58.8134,65.53266c0.238-1.18675.41667-2.25925,1.58684-2.71695C60.316,63.4581,59.96656,64.07332,58.8134,65.53266Z"/><path d="M61.48509,58.84138a1.32335,1.32335,0,0,1-.33217,1.47689A1.20686,1.20686,0,0,1,61.48509,58.84138Z"/><path d="M58.34644,66.11746l0.31921,0.96229C57.92643,66.91164,57.92643,66.91164,58.34644,66.11746Z"/><path d="M61.8025,61.934c0.52418,0.69769.15057,0.891-.31257,1.071C61.23273,62.56509,61.63967,62.337,61.8025,61.934Z"/><path d="M53.9912,75.11764a0.78734,0.78734,0,0,1,.04089-0.2201,0.82216,0.82216,0,0,1,.61324-0.45478,0.27868,0.27868,0,0,1,.11178.21767,0.55734,0.55734,0,0,1-.43666.45323A1.33567,1.33567,0,0,1,53.9912,75.11764Z"/><path d="M84.40095,62.38812c-0.364-.03948-0.448.45962-0.81917,0.423-0.255-.318.04894-0.51346,0.18819-0.71822,0.11174-.16433.242-0.45184,0.52355-0.26507,0.22045,0.14621-.20233.41811,0.07019,0.589Z"/><path d="M80.37953,61.45962a4.189,4.189,0,0,1,1.3303-.31916,0.99494,0.99494,0,0,1-1.33612.30464Z"/><path d="M16.37607,66.53913c0.01032-.885-0.85411-0.90047-1.31445-1.31621-0.29738-.26858-1.04344-0.42563-0.8191-0.79871,0.36769-.61152.63919,0.21406,0.98564,0.3294,0.75648,0.25187,1.48687.58221,2.23893,0.88493a0.948,0.948,0,0,1-1.1409.84993Z"/><path d="M81.88174,54.02251a0.418,0.418,0,0,1-.555.04381c-0.073-.233.19654-0.10923,0.31561-0.12982A0.57309,0.57309,0,0,1,81.88174,54.02251Z"/><path d="M79.42574,58.20485a1.49741,1.49741,0,0,1-.90107-0.90639A1.0619,1.0619,0,0,1,79.42574,58.20485Z"/></g><text x="0" y="115" fill="#000000" font-size="5px" font-weight="bold" font-family="'Helvetica Neue', Helvetica, Arial-Unicode, Arial, Sans-serif">Created by Olga</text><text x="0" y="120" fill="#000000" font-size="5px" font-weight="bold" font-family="'Helvetica Neue', Helvetica, Arial-Unicode, Arial, Sans-serif">from the Noun Project</text></svg>